<svg xmlns="http://www.w3.org/2000/svg" width="30" height="18" viewBox="0 0 30 18" fill="none"><path fill-rule="evenodd" clip-rule="evenodd" d="M11.944 13.3058H21.0928C22.1287 10.256 26.4512 10.2853 27.477 13.3058H28.2415V8.90972C28.2415 8.36198 27.7927 7.91315 27.2452 7.91315H20.5043C20.0187 7.91315 19.625 7.51946 19.625 7.03401V1.75852H4.56091V2.81344H6.17752C7.33498 2.81344 7.33498 4.5719 6.17752 4.5719H4.56091V6.27182H8.78125C9.93894 6.27182 9.93894 8.03034 8.78125 8.03034H4.56091V13.3056H5.55994C6.59564 10.2558 10.9183 10.2855 11.944 13.3058ZM2.8024 4.5719H1.74747C0.589776 4.5719 0.589776 2.81344 1.74747 2.81344H2.8024V0.879142C2.8024 0.393692 3.19609 0 3.68177 0C5.02732 0 19.8156 0.00574219 19.8156 0C22.2226 0 24.3192 1.19156 25.5528 3.2618L27.2767 6.15487C28.7812 6.1718 30 7.40251 30 8.90948V14.185C30 14.6704 29.6063 15.0641 29.1209 15.0641H27.588C27.2729 16.6159 25.9017 17.7603 24.2851 17.7603C22.6684 17.7603 21.2972 16.616 20.9821 15.0641H12.0549C11.7398 16.6159 10.3686 17.7603 8.75201 17.7603C7.13541 17.7603 5.76414 16.616 5.44896 15.0641H3.68177C3.19603 15.0641 2.8024 14.6704 2.8024 14.185V11.5471H0.868097C-0.289365 11.5471 -0.289365 9.78886 0.868097 9.78886H2.8024V8.03028H0.868097C-0.289365 8.03028 -0.289365 6.27176 0.868097 6.27176H2.8024V4.5719ZM25.4249 13.2502C26.0543 13.8796 26.0543 14.9005 25.4249 15.5299C24.4123 16.5424 22.673 15.8221 22.673 14.3901C22.673 12.958 24.4123 12.2376 25.4249 13.2502ZM25.236 6.15464H21.3835V1.99688C22.5053 2.35641 23.4226 3.11127 24.0483 4.16157L25.236 6.15464ZM9.89178 13.2502C10.5213 13.8796 10.5213 14.9005 9.89178 15.5299C8.87928 16.5424 7.13992 15.8221 7.13992 14.3901C7.14015 12.9579 8.87922 12.2376 9.89178 13.2502Z" fill="#252525"></path></svg>