<svg xmlns="http://www.w3.org/2000/svg" width="22" height="22" viewBox="0 0 22 22" fill="none"><path d="M19.1086 9.8811V19.6617H2.91655V9.8811H1.40796V20.416C1.40796 20.8326 1.74561 21.1703 2.16223 21.1703H19.8629C20.2795 21.1703 20.6171 20.8326 20.6171 20.416V9.8811H19.1086Z" fill="#252525"></path><path d="M21.2458 4.22363H0.754275C0.337649 4.22363 0 4.56128 0 4.97791V9.90592C0 10.3225 0.337649 10.6602 0.754275 10.6602H21.2457C21.6624 10.6602 22 10.3228 22 9.90592V4.97791C22 4.56128 21.6624 4.22363 21.2458 4.22363ZM20.4915 9.1519H1.50859V5.73248H20.4915V9.1519H20.4915Z" fill="#252525"></path><path d="M11.7421 4.7872C11.6908 4.59161 10.4465 0 6.81354 0C5.23307 0 3.94727 1.2858 3.94727 2.86628C3.94727 4.44676 5.22176 5.73256 6.78841 5.73256H11.0124C11.246 5.73256 11.4668 5.62419 11.6096 5.43912C11.7523 5.25406 11.8012 5.01322 11.7421 4.7872ZM6.78845 4.22401C6.04122 4.22401 5.45586 3.6276 5.45586 2.86628C5.45586 2.13035 6.07766 1.50855 6.81359 1.50855C8.46875 1.50855 9.45987 3.13909 9.93635 4.22397L6.78845 4.22401Z" fill="#252525"></path><path d="M15.2115 0C11.5786 0 10.3343 4.59161 10.283 4.7872C10.2537 4.89878 10.2504 5.01558 10.2734 5.12861C10.2964 5.24165 10.345 5.34791 10.4154 5.43923C10.4859 5.53054 10.5764 5.60447 10.6799 5.65533C10.7834 5.70619 10.8973 5.73263 11.0126 5.7326H15.2366C16.8033 5.7326 18.0778 4.4468 18.0778 2.86632C18.0778 1.2858 16.792 0 15.2115 0ZM15.2367 4.22401H12.0858C12.5587 3.13909 13.5468 1.50859 15.2118 1.50859C15.9477 1.50859 16.5695 2.13039 16.5695 2.86632C16.5695 3.6276 15.9841 4.22401 15.2367 4.22401Z" fill="#252525"></path><path d="M10.2583 4.97827H11.7669V20.416H10.2583V4.97827Z" fill="#252525"></path></svg>