<svg xmlns="http://www.w3.org/2000/svg" width="26" height="27" viewBox="0 0 26 27" fill="none"><path d="M5.79418 6.84429C5.85959 6.98439 5.96362 7.10291 6.09405 7.18594C6.22448 7.26898 6.37589 7.31307 6.5305 7.31305H10.4813V8.70857C10.4813 8.92405 10.5669 9.13072 10.7193 9.28309C10.8716 9.43546 11.0783 9.52106 11.2938 9.52106C11.5093 9.52106 11.7159 9.43546 11.8683 9.28309C12.0207 9.13072 12.1063 8.92405 12.1063 8.70857V7.31305H12.4805C12.696 7.31305 12.9027 7.22745 13.0551 7.07507C13.2074 6.9227 13.293 6.71604 13.293 6.50055C13.293 6.28506 13.2074 6.0784 13.0551 5.92603C12.9027 5.77365 12.696 5.68805 12.4805 5.68805H12.1063V0.8123C12.1062 0.645527 12.0549 0.482807 11.9592 0.346229C11.8635 0.209651 11.728 0.105832 11.5713 0.0488674C11.4146 -0.00809759 11.2441 -0.0154494 11.083 0.0278101C10.922 0.0710696 10.7781 0.162845 10.671 0.290676L5.90742 5.97893C5.80818 6.09745 5.74481 6.24183 5.72475 6.39511C5.70469 6.54839 5.72877 6.70422 5.79418 6.84429ZM10.4813 3.04809V5.68815H8.27052L10.4813 3.04809ZM14.593 20.3069L18.8496 13.6614H15.7155C15.5 13.6614 15.2933 13.5758 15.141 13.4234C14.9886 13.271 14.903 13.0643 14.903 12.8489C14.903 12.6334 14.9886 12.4267 15.141 12.2743C15.2933 12.122 15.5 12.0364 15.7155 12.0364H20.3349C20.4807 12.0364 20.6238 12.0756 20.7492 12.1499C20.8747 12.2243 20.9778 12.331 21.0477 12.4589C21.1177 12.5868 21.152 12.7312 21.1469 12.8769C21.1419 13.0227 21.0977 13.1643 21.0191 13.2871L15.9613 21.1836C15.9038 21.2737 15.8292 21.3516 15.7416 21.4128C15.6541 21.474 15.5553 21.5174 15.4509 21.5404C15.3466 21.5634 15.2387 21.5655 15.1335 21.5468C15.0283 21.528 14.9278 21.4887 14.8378 21.4311C14.7479 21.3734 14.6701 21.2986 14.6091 21.2109C14.5481 21.1232 14.505 21.0243 14.4822 20.9199C14.4595 20.8155 14.4575 20.7076 14.4765 20.6025C14.4955 20.4973 14.5351 20.3969 14.5929 20.3071L14.593 20.3069ZM18.8465 5.37692C18.9988 5.52929 19.0844 5.73595 19.0844 5.95143C19.0844 6.16691 18.9988 6.37357 18.8465 6.52594L6.86932 18.5031C6.71663 18.654 6.51046 18.7383 6.29583 18.7376C6.08119 18.737 5.87554 18.6514 5.72377 18.4997C5.572 18.3479 5.48645 18.1422 5.4858 17.9276C5.48515 17.713 5.56945 17.5068 5.72029 17.3541L17.6973 5.37692C17.7727 5.30145 17.8623 5.24158 17.9609 5.20074C18.0595 5.1599 18.1652 5.13888 18.2719 5.13888C18.3786 5.13888 18.4843 5.1599 18.5828 5.20074C18.6814 5.24158 18.771 5.30145 18.8465 5.37692ZM4.59574 3.67463C4.80141 2.92155 4.67105 2.35432 4.20833 1.98793C3.69037 1.57813 2.82795 1.50551 2.24493 1.8231C1.80202 2.06431 1.60575 2.48107 1.66161 3.06216C1.67181 3.16837 1.66099 3.27556 1.62976 3.37759C1.59854 3.47963 1.54752 3.57451 1.47963 3.65683C1.41174 3.73915 1.3283 3.80729 1.23407 3.85736C1.13984 3.90743 1.03668 3.93845 0.93046 3.94865C0.824245 3.95885 0.717061 3.94802 0.615027 3.9168C0.512994 3.88558 0.41811 3.83456 0.335792 3.76667C0.253474 3.69878 0.185335 3.61533 0.135264 3.52111C0.0851942 3.42688 0.0541736 3.32371 0.0439739 3.2175C-0.0749048 1.98169 0.444028 0.953421 1.46762 0.395996C2.61655 -0.229628 4.19315 -0.0960732 5.21649 0.713582C6.19494 1.48774 6.53995 2.72304 6.16315 4.10272C5.90884 5.03394 5.03835 5.71319 4.03034 6.49984C3.48617 6.92447 2.89925 7.38247 2.40713 7.89632H5.77285C5.98834 7.89632 6.195 7.98192 6.34737 8.1343C6.49975 8.28667 6.58535 8.49333 6.58535 8.70882C6.58535 8.92431 6.49975 9.13097 6.34737 9.28334C6.195 9.43572 5.98834 9.52132 5.77285 9.52132H0.829558C0.691857 9.52136 0.556404 9.48641 0.435917 9.41974C0.315431 9.35307 0.213866 9.25688 0.140759 9.14018C0.0676523 9.02349 0.0254024 8.89013 0.0179771 8.75263C0.0105517 8.61513 0.0381945 8.478 0.0983097 8.35411C0.759734 6.99094 1.96609 6.04956 3.03041 5.21899C3.74496 4.66136 4.48352 4.08499 4.59574 3.67463ZM26 13.0839C26 15.655 25.2376 18.1685 23.8091 20.3063C22.3807 22.4442 20.3504 24.1104 17.9749 25.0943C15.5995 26.0783 12.9856 26.3357 10.4638 25.8341C7.94208 25.3325 5.6257 24.0944 3.80762 22.2763C2.59668 21.0719 1.63665 19.6393 0.983075 18.0615C0.329505 16.4836 -0.00461687 14.7917 4.81842e-05 13.0839C4.81842e-05 12.8684 0.0856505 12.6617 0.238023 12.5093C0.390397 12.357 0.597059 12.2714 0.812547 12.2714C1.02803 12.2714 1.2347 12.357 1.38707 12.5093C1.53944 12.6617 1.62505 12.8684 1.62505 13.0839C1.62505 19.3561 6.72784 24.4588 13 24.4588C19.2722 24.4588 24.375 19.3561 24.375 13.0839C24.375 7.38948 20.1239 2.54084 14.4866 1.80538C14.3797 1.79292 14.2763 1.75934 14.1825 1.7066C14.0886 1.65385 14.0062 1.58299 13.94 1.49812C13.8738 1.41325 13.8251 1.31607 13.7968 1.21223C13.7684 1.10838 13.761 0.999945 13.7749 0.893209C13.7889 0.786472 13.8239 0.683568 13.8779 0.590472C13.9319 0.497376 14.0039 0.415945 14.0897 0.350908C14.1755 0.285872 14.2733 0.238527 14.3775 0.211624C14.4818 0.184721 14.5903 0.178795 14.6968 0.194192C17.8237 0.606284 20.6942 2.14092 22.7737 4.51225C24.8532 6.88358 25.9998 9.92993 26 13.0839Z" fill="#252525"></path></svg>