<svg xmlns="http://www.w3.org/2000/svg" width="28" height="28" viewBox="0 0 28 28" fill="none"><path d="M28 14C28 21.7195 21.7195 28 14 28C6.28046 28 0 21.7195 0 14C0 13.7679 0.0921873 13.5454 0.256282 13.3813C0.420376 13.2172 0.642936 13.125 0.875 13.125C1.10706 13.125 1.32962 13.2172 1.49372 13.3813C1.65781 13.5454 1.75 13.7679 1.75 14C1.75 20.7547 7.24529 26.25 14 26.25C20.7547 26.25 26.25 20.7547 26.25 14C26.25 7.24529 20.7547 1.75 14 1.75C10.7447 1.75 7.72158 3.01554 5.44775 5.25H8.75C8.98206 5.25 9.20462 5.34219 9.36872 5.50628C9.53281 5.67038 9.625 5.89294 9.625 6.125C9.625 6.35706 9.53281 6.57962 9.36872 6.74372C9.20462 6.90781 8.98206 7 8.75 7H3.5C3.26794 7 3.04538 6.90781 2.88128 6.74372C2.71719 6.57962 2.625 6.35706 2.625 6.125V0.875C2.625 0.760093 2.64763 0.646312 2.69161 0.540152C2.73558 0.433992 2.80003 0.337533 2.88128 0.256282C2.96253 0.17503 3.05899 0.110578 3.16515 0.0666054C3.27131 0.0226326 3.38509 0 3.5 0C3.61491 0 3.72869 0.0226326 3.83485 0.0666054C3.94101 0.110578 4.03747 0.17503 4.11872 0.256282C4.19997 0.337533 4.26442 0.433992 4.30839 0.540152C4.35237 0.646312 4.375 0.760093 4.375 0.875V3.85962C6.95654 1.39562 10.3486 3.47694e-08 14 3.47694e-08C21.7195 3.47694e-08 28 6.28046 28 14ZM14.875 13.125H13.125C12.6423 13.125 12.25 12.7324 12.25 12.25C12.25 11.7676 12.6423 11.375 13.125 11.375H16.625C16.8571 11.375 17.0796 11.2828 17.2437 11.1187C17.4078 10.9546 17.5 10.7321 17.5 10.5C17.5 10.2679 17.4078 10.0454 17.2437 9.88128C17.0796 9.71719 16.8571 9.625 16.625 9.625H14.875V8.75C14.875 8.63509 14.8524 8.52131 14.8084 8.41515C14.7644 8.30899 14.7 8.21253 14.6187 8.13128C14.5375 8.05003 14.441 7.98558 14.3348 7.94161C14.2287 7.89763 14.1149 7.875 14 7.875C13.8851 7.875 13.7713 7.89763 13.6652 7.94161C13.559 7.98558 13.4625 8.05003 13.3813 8.13128C13.3 8.21253 13.2356 8.30899 13.1916 8.41515C13.1476 8.52131 13.125 8.63509 13.125 8.75V9.625C11.6775 9.625 10.5 10.8025 10.5 12.25C10.5 13.6975 11.6775 14.875 13.125 14.875H14.875C15.3577 14.875 15.75 15.2676 15.75 15.75C15.75 16.2324 15.3577 16.625 14.875 16.625H11.375C11.1429 16.625 10.9204 16.7172 10.7563 16.8813C10.5922 17.0454 10.5 17.2679 10.5 17.5C10.5 17.7321 10.5922 17.9546 10.7563 18.1187C10.9204 18.2828 11.1429 18.375 11.375 18.375H13.125V19.25C13.125 19.3649 13.1476 19.4787 13.1916 19.5848C13.2356 19.691 13.3 19.7875 13.3813 19.8687C13.4625 19.95 13.559 20.0144 13.6652 20.0584C13.7713 20.1024 13.8851 20.125 14 20.125C14.1149 20.125 14.2287 20.1024 14.3348 20.0584C14.441 20.0144 14.5375 19.95 14.6187 19.8687C14.7 19.7875 14.7644 19.691 14.8084 19.5848C14.8524 19.4787 14.875 19.3649 14.875 19.25V18.375C16.3225 18.375 17.5 17.1975 17.5 15.75C17.5 14.3025 16.3225 13.125 14.875 13.125Z" fill="#252525"></path></svg>