<svg xmlns="http://www.w3.org/2000/svg" xmlns:xlink="http://www.w3.org/1999/xlink" id="Layer_1" x="0px" y="0px" width="100%" viewBox="0 0 350 114" xml:space="preserve"><path fill="#141213" opacity="1.000000" stroke="none" d="M63.000000,115.000000  C59.969406,115.000000 56.938812,115.000000 53.446045,114.631607  C52.484722,113.309784 52.156788,111.703171 51.455883,111.519455  C48.845997,110.835335 46.113605,110.618561 43.248890,110.200348  C43.463432,111.571289 43.731716,113.285645 44.000000,115.000000  C29.678074,115.000000 15.356148,115.000000 1.017111,115.000000  C1.017111,77.041656 1.017111,39.083302 1.017111,1.062474  C117.666656,1.062474 234.333328,1.062474 351.000000,1.062474  C351.000000,15.084969 351.000000,29.073826 350.589661,43.531349  C347.097839,43.761326 344.301880,43.963165 343.664368,47.999809  C342.889679,47.979504 342.447021,47.966835 341.990051,47.587418  C341.207184,46.481213 340.438660,45.741753 339.358032,44.881752  C333.328522,39.835663 327.045624,39.144623 320.170929,42.066807  C319.152374,42.499752 317.805389,42.391922 316.653076,42.230091  C314.210297,41.887032 311.795685,41.343357 308.749786,40.764080  C308.749786,43.673676 308.776764,45.472580 308.745300,47.270458  C308.577148,56.874607 308.394379,66.478500 307.883759,75.809372  C307.358917,66.258141 307.214386,56.978596 306.935974,47.703068  C306.878571,45.791698 306.321747,43.895313 305.771179,41.750515  C304.784912,41.744106 304.022491,41.979202 303.260101,42.214302  C304.169159,42.809944 305.078186,43.405586 305.990906,44.469795  C305.996613,54.753395 305.928406,64.569664 306.099518,74.381744  C306.118530,75.472450 307.500732,76.539375 308.610474,77.795456  C316.924438,80.306740 318.136200,79.481171 318.161957,71.837372  C318.178223,67.011871 317.972351,62.157761 318.425171,57.369347  C318.889740,52.457043 322.349365,49.701622 326.797943,49.915134  C330.948975,50.114365 333.474030,53.041592 333.599579,58.171215  C333.725800,63.329700 333.893463,68.512741 333.534637,73.649513  C333.243408,77.819763 334.602570,79.574097 338.782013,78.899910  C340.245819,78.663788 341.708038,78.417763 343.584351,77.955292  C344.210205,69.481277 344.440948,61.228512 344.565430,52.974155  C344.570221,52.657650 343.551544,52.325710 342.792175,51.844162  C342.595520,51.509777 342.616455,51.332195 342.902893,51.005974  C343.450531,50.570724 343.732697,50.284115 344.408112,50.007996  C346.867584,50.345657 348.933807,50.672829 351.000000,51.000000  C351.000000,72.306335 351.000000,93.612663 351.000000,115.000000  C257.312439,115.000000 163.624878,115.000000 69.419418,114.627411  C67.543304,113.200722 66.185089,112.146622 64.826881,111.092529  C64.217918,112.395020 63.608959,113.697510 63.000000,115.000000 M272.832214,38.315823  C269.008423,36.242138 267.608398,36.429771 266.828003,39.492992  C266.536133,39.883354 266.244263,40.273720 265.246979,40.920834  C263.828369,41.370045 262.409790,41.819256 261.012756,41.492523  C261.092499,41.001728 261.202301,40.513615 261.246368,40.019634  C261.381195,38.507782 261.490814,36.993671 261.610229,35.480442  C260.428467,35.697220 258.250977,35.845425 258.230530,36.142181  C258.118683,37.766483 258.372162,39.477989 258.857910,41.048870  C259.035919,41.624439 260.195648,41.896427 260.466614,42.901749  C254.943298,45.470020 253.083694,50.569199 250.887512,56.125183  C250.659561,58.718315 250.431625,61.311451 249.581772,64.016136  C249.387848,65.010704 249.193924,66.005264 248.380356,67.353142  C245.582748,70.195335 247.401154,72.684120 249.357712,74.664673  C251.668228,77.003540 251.880569,74.802589 252.805817,72.975311  C253.341736,72.935478 253.877640,72.895638 255.061432,73.000839  C266.645660,85.206696 283.518005,81.102364 288.381226,66.076744  C291.398224,56.755283 287.986359,44.771694 274.072723,40.115211  C273.717712,39.762726 273.362701,39.410236 272.832214,38.315823 M46.265270,11.094151  C45.645214,11.307340 44.822571,11.340681 44.443443,11.767751  C43.346760,13.003118 42.428490,14.396867 41.440186,15.728442  C42.888500,16.248966 44.310013,16.878258 45.796352,17.244446  C46.547337,17.429466 47.415623,17.138376 48.003437,17.823778  C46.118053,21.226706 44.232674,24.629633 42.056889,28.556705  C45.119171,27.975063 47.459728,27.530506 50.201073,27.905590  C53.622658,29.185253 57.061974,30.654076 60.740284,26.764221  C62.701450,26.716175 64.662621,26.668131 66.743271,27.474937  C66.745682,30.216152 66.642319,32.962650 66.778893,35.697163  C66.929237,38.707500 68.469307,41.289135 71.583389,40.262356  C72.865685,39.839565 73.247528,36.363953 73.827347,34.219696  C74.452896,31.906328 74.887230,29.535774 75.296570,27.171400  C75.558670,25.657518 75.624481,24.109652 75.778297,22.577019  C74.219917,23.188215 71.650497,23.452257 71.298416,24.477650  C70.355080,27.225052 68.841629,27.169870 65.968567,26.080807  C68.063072,21.881117 70.157570,17.681425 72.246109,13.493696  C63.972179,8.207960 53.494431,9.508816 48.004364,15.877357  C47.669579,14.251572 47.334789,12.625786 47.641754,10.883217  C48.009232,10.211302 48.376709,9.539386 48.744186,8.867471  C48.361710,8.725420 47.979233,8.583369 47.596756,8.441318  C47.397835,9.294211 47.198917,10.147105 46.265270,11.094151 M154.006210,59.290154  C153.299026,58.521404 152.591843,57.752655 151.599625,56.262577  C152.506424,52.529663 154.888245,49.870338 158.659714,50.101131  C160.956528,50.241680 163.134567,52.322716 165.146164,54.509296  C165.159180,61.638493 164.937088,68.781425 165.352448,75.887108  C165.454803,77.637970 167.426651,80.426193 168.903458,80.688850  C171.285767,81.112556 175.185425,82.786018 176.028717,77.070747  C176.016693,74.263557 176.043182,71.455582 175.985291,68.649338  C175.823318,60.797993 177.108963,52.746372 172.983658,44.770729  C173.914169,44.706207 174.855286,44.523724 175.772583,44.606205  C176.994308,44.716068 178.197510,45.032108 179.408661,45.259583  C178.405319,42.997780 177.268158,42.149124 176.235199,41.188435  C174.926941,39.971718 173.703415,38.663906 172.443344,37.395378  C171.544708,39.129288 170.646072,40.863197 168.998550,42.509319  C167.375320,41.847298 165.752075,41.185276 163.864807,39.870487  C161.541031,40.129185 159.217239,40.387882 156.168427,40.920483  C154.222321,41.777977 152.276215,42.635468 150.330093,43.492958  C150.386032,43.122089 150.441971,42.751221 150.497910,42.380352  C147.863312,41.857288 145.228699,41.334225 142.096024,40.712276  C142.096024,53.797974 142.096024,65.966721 142.096024,79.504723  C145.683044,78.591919 148.773911,77.805367 152.485550,76.917633  C153.006882,76.610191 153.528214,76.302750 154.839386,75.972664  C158.287872,75.741737 158.773987,72.800110 157.818039,70.940742  C156.006882,67.417961 159.872910,61.988132 154.006210,59.290154 M207.816956,36.118805  C212.698959,38.662472 218.809479,34.619949 223.469055,39.145557  C224.435181,40.083897 227.049103,40.374607 228.228226,39.729439  C229.264999,39.162140 230.164368,36.491989 229.669510,35.425869  C228.985001,33.951187 227.023193,32.320103 225.455475,32.147903  C221.092117,31.668633 216.513550,32.562908 212.276550,31.681438  C207.908371,30.772680 206.741837,32.082764 206.230621,36.105083  C203.312927,37.100113 200.309525,37.912430 197.535629,39.213951  C196.808823,39.554962 196.533554,41.426117 196.584686,42.570709  C196.604431,43.012684 198.592911,43.942768 198.859970,43.708920  C201.669296,41.248894 204.311569,38.598095 207.816956,36.118805 M217.843765,39.917141  C214.889786,40.247837 211.935822,40.578533 208.354019,41.227058  C196.805237,46.852184 192.200760,56.144924 196.106354,66.303795  C201.440674,80.179016 212.311829,82.792664 225.918213,77.341026  C226.141418,78.362885 226.364639,79.384735 226.587845,80.406593  C227.061829,80.429840 227.535797,80.453087 228.009781,80.476326  C228.305237,78.228241 228.600677,75.980148 229.144623,73.068840  C237.870743,60.364403 232.812500,44.088680 217.843765,39.917141 M29.851143,101.163490  C29.902142,101.618576 29.953140,102.073662 30.004133,102.528740  C30.406225,102.157890 30.808315,101.787041 31.959648,101.470886  C39.006302,103.776649 45.920700,107.399765 53.126217,108.123199  C69.865875,109.803841 84.179878,104.270500 95.324165,90.952095  C100.090088,85.256409 102.909157,78.861359 105.845779,72.045586  C105.912872,71.366386 105.979958,70.687195 106.007675,69.158264  C106.248070,67.484962 106.488464,65.811661 107.322220,63.779724  C107.121788,61.139385 106.921356,58.499050 106.445213,55.027611  C104.942619,41.485256 98.732178,30.569202 87.999138,21.292217  C85.009392,26.367735 82.360100,30.865274 79.728745,35.332363  C89.938385,45.527714 93.663666,56.987381 89.272705,70.659698  C84.878906,84.340874 70.684837,93.912430 55.648579,93.136803  C41.222759,92.392662 27.952805,81.185577 25.716543,66.999023  C25.350155,66.282982 24.983767,65.566933 24.364283,63.998711  C24.404806,61.039227 24.445330,58.079742 25.031734,54.988724  C25.083216,54.200726 25.134699,53.412724 25.186182,52.624725  C24.800463,52.965626 24.414743,53.306526 23.313383,53.745998  C22.233183,54.238483 21.152981,54.730965 20.033163,54.379364  C19.088272,49.557602 16.498629,48.635857 9.977695,51.915726  C13.282886,53.599701 15.844153,54.904652 18.015993,56.790398  C16.319185,57.807030 14.714703,59.047688 12.906097,59.793049  C9.288845,61.283787 8.865337,63.691864 9.467151,67.315796  C11.083469,77.048759 14.810882,85.640312 21.537872,92.917023  C22.100693,93.525833 22.085842,94.668678 21.601955,95.730087  C20.037655,94.961929 18.473352,94.193764 16.876829,93.409775  C16.116055,97.544525 21.590380,102.582764 27.408407,103.253754  C25.753092,100.725121 24.097775,98.196487 22.971777,95.030319  C25.432508,96.970085 27.893240,98.909851 29.851143,101.163490 M130.492828,90.000000  C132.987076,89.999672 135.509018,90.223564 137.965820,89.920097  C139.600388,89.718185 142.257416,89.034439 142.487488,88.087761  C142.934219,86.249580 142.625061,83.536934 141.466431,82.177353  C140.074570,80.544075 137.470154,79.944122 136.000000,79.203629  C136.000000,74.785789 136.000000,70.673973 136.000000,66.562157  C136.000000,57.282150 136.000000,48.002148 136.000000,38.499542  C128.123489,38.499542 119.815285,38.499542 111.502327,38.499542  C110.501465,42.127865 111.038368,44.515659 114.502228,46.165703  C115.700371,46.736450 116.817467,48.919540 116.804131,50.355305  C116.722610,59.130997 116.142166,67.901604 116.036781,76.677612  C115.861877,91.242218 114.845322,90.024994 130.492828,90.000000 M48.531174,34.941322  C47.080894,38.723969 49.321106,40.392708 52.437923,40.801888  C55.811832,41.244823 59.740173,41.912495 61.651653,37.967361  C62.196209,36.843456 61.567795,34.596752 60.700329,33.455479  C58.729965,30.863167 51.325180,31.488754 48.531174,34.941322 M106.765236,27.764986  C106.603546,27.293833 106.374626,26.834387 106.290237,26.349773  C105.006729,18.978796 104.923378,18.935411 98.012421,21.788223  C97.165627,22.137779 96.264664,22.356129 94.776947,22.830284  C97.969398,27.145420 100.821312,31.000269 103.673218,34.855118  C104.188751,34.885639 104.704277,34.916161 105.219803,34.946686  C105.787041,32.825726 106.354279,30.704769 106.765236,27.764986 M233.254532,48.213589  C234.161850,49.743332 235.069168,51.273075 236.022141,52.879807  C238.541275,52.140240 241.036057,51.726048 243.199326,50.647171  C244.397583,50.049568 245.856003,48.231323 245.713074,47.161579  C245.560684,46.020927 243.683075,44.298615 242.515076,44.263107  C239.418091,44.168968 236.286392,44.783718 233.204575,45.322758  C232.910690,45.374161 232.870148,46.874027 233.254532,48.213589 M154.865677,83.166458  C153.921509,82.335777 152.534531,80.616470 152.109726,80.828140  C150.263107,81.748299 147.767456,82.930771 147.235870,84.576241  C146.328461,87.385033 147.928513,89.811295 151.295486,89.923935  C155.788589,90.074249 154.883575,86.656525 154.865677,83.166458 M291.017883,67.413063  C291.925079,68.105972 293.379517,69.569420 293.655457,69.373444  C296.654572,67.243538 298.918182,64.643906 296.952911,59.170933  C294.590302,62.147617 292.802917,64.399605 291.017883,67.413063 M77.247505,12.264092  C78.576698,12.502672 79.905891,12.741252 81.235085,12.979831  C81.212593,11.311299 81.662949,8.421535 81.081581,8.196435  C79.103088,7.430387 76.760674,7.604246 74.557205,7.419251  C74.521767,7.914396 74.486336,8.409540 74.450897,8.904685  C75.299286,9.795166 76.147675,10.685647 77.247505,12.264092 M138.989899,54.525776  C138.989899,61.961407 138.989899,69.397041 138.989899,76.832672  C139.236954,76.828766 139.484024,76.824860 139.731079,76.820953  C139.731079,65.610657 139.731079,54.400356 139.731079,43.190060  C139.484009,43.183762 139.236938,43.177464 138.989868,43.171165  C138.989868,46.627373 138.989868,50.083580 138.989899,54.525776 M283.918152,42.336067  C285.607574,43.319130 287.296997,44.302193 288.986420,45.285248  C289.142059,44.244038 289.806610,42.757652 289.358124,42.244930  C288.001465,40.694046 286.213104,39.520805 284.592987,38.200382  C284.225098,39.378857 283.857208,40.557335 283.918152,42.336067 M304.710419,84.926216  C305.763947,84.127739 307.005371,83.466621 307.752747,82.444328  C307.967804,82.150146 306.905029,80.271225 306.171051,80.073586  C304.781219,79.699326 303.205292,80.015961 301.706696,80.045547  C302.458282,81.630974 303.209869,83.216400 304.710419,84.926216 M98.713806,97.059235  C98.474625,96.067383 98.235451,95.075523 97.996277,94.083664  C98.229988,94.706917 98.463707,95.330162 98.697418,95.953407  C95.988411,97.408897 93.279404,98.864388 90.570396,100.319878  C91.141495,100.987419 91.712601,101.654968 92.283699,102.322517  C94.286545,100.765266 96.289398,99.208008 98.713806,97.059235 M282.636871,80.851295  C281.792999,81.137207 280.949127,81.423119 280.105255,81.709023  C280.665039,82.584457 281.050720,83.731339 281.845154,84.240799  C282.383362,84.585938 283.496094,84.035164 284.351868,83.885086  C283.985870,82.974182 283.619843,82.063271 282.636871,80.851295 M193.071381,71.048409  C192.091019,71.806198 191.110657,72.563988 190.130295,73.321770  C190.835419,73.781578 191.540558,74.241386 192.245682,74.701195  C192.754898,73.526825 193.264114,72.352448 193.071381,71.048409 M47.671535,84.921227  C48.227139,83.979485 48.782742,83.037743 49.338345,82.096008  C48.325260,81.902641 47.312180,81.709274 46.299099,81.515900  C46.518402,82.611542 46.737709,83.707191 47.671535,84.921227 M88.633179,16.244457  C87.349739,15.560106 86.066292,14.875754 84.782852,14.191403  C84.559105,15.018512 84.335358,15.845621 84.111618,16.672731  C85.528465,16.740118 86.945312,16.807505 88.633179,16.244457 M163.167206,35.261040  C162.049545,34.583817 160.931870,33.906593 159.329742,32.935822  C159.939636,37.383831 159.939636,37.383831 163.167206,35.261040 M238.901978,59.344612  C239.552109,58.194263 240.202240,57.043919 241.500549,54.746693  C237.963058,56.123547 235.546158,56.606808 238.901978,59.344612 M159.371506,53.855679  C160.091858,54.834904 160.812195,55.814129 161.532547,56.793358  C161.951385,56.380844 162.370209,55.968330 162.789032,55.555813  C161.817627,54.824726 160.846222,54.093639 159.371506,53.855679 M28.627008,58.421658  C29.257486,57.779072 29.887964,57.136482 30.518442,56.493896  C30.022247,56.158741 29.526054,55.823589 29.029860,55.488434  C28.763979,56.302956 28.498098,57.117477 28.627008,58.421658 M80.700859,44.968029  C81.565445,45.126507 82.430023,45.284985 83.294617,45.443459  C83.189552,44.873028 83.084488,44.302597 82.979424,43.732170  C82.125130,43.947796 81.270828,44.163418 80.700859,44.968029 M162.430939,80.825645  C162.243973,80.039223 162.057022,79.252800 161.870071,78.466377  C161.320572,78.986069 160.771057,79.505760 160.221558,80.025452  C160.806915,80.447502 161.392273,80.869560 162.430939,80.825645 M43.154160,32.389004  C42.530842,32.842293 41.907524,33.295582 41.284206,33.748871  C41.598705,34.069714 41.913200,34.390556 42.227695,34.711403  C42.692017,34.096210 43.156338,33.481022 43.154160,32.389004 M337.854492,38.381290  C337.939697,39.147453 338.024902,39.913616 338.110077,40.679779  C338.549500,40.565613 338.988953,40.451447 339.428375,40.337273  C339.119720,39.633167 338.811066,38.929066 337.854492,38.381290 M323.527802,54.691395  C323.891052,55.312965 324.254303,55.934536 324.617554,56.556107  C325.010162,56.162582 325.402740,55.769058 325.795319,55.375523  C325.195190,55.014091 324.595093,54.652660 323.527802,54.691395 M83.298035,72.013680  C84.033096,71.837784 84.768158,71.661880 85.503212,71.485985  C85.324959,71.088753 85.146706,70.691521 84.968460,70.294281  C84.377632,70.661301 83.786797,71.028313 83.298035,72.013680 M87.699928,62.039757  C87.349388,61.430275 86.998848,60.820793 86.648308,60.211315  C86.242516,60.595516 85.836731,60.979713 85.430939,61.363911  C86.048836,61.742146 86.666733,62.120380 87.699928,62.039757 M11.662476,90.098305  C11.959427,90.663826 12.256377,91.229355 12.553328,91.794876  C12.968826,91.378151 13.384326,90.961426 13.799828,90.544708  C13.235334,90.247223 12.670841,89.949730 11.662476,90.098305 M249.098419,49.337711  C249.663971,49.040794 250.229507,48.743881 250.795044,48.446976  C250.378296,48.031429 249.961548,47.615883 249.544800,47.200325  C249.247314,47.764816 248.949829,48.329308 249.098419,49.337711 M104.692039,85.940422  C104.219162,85.991776 103.746292,86.043137 103.273407,86.094490  C103.382835,86.512680 103.492256,86.930870 103.601685,87.349068  C104.006813,87.066582 104.411942,86.784096 104.692039,85.940422 M74.457359,85.295738  C74.094025,84.935616 73.730690,84.575485 73.367355,84.215363  C73.093422,84.514107 72.819489,84.812859 72.545555,85.111610  C73.046448,85.306351 73.547348,85.501091 74.457359,85.295738 M292.272766,56.484104  C292.011871,56.731972 291.748535,56.977554 291.503815,57.240479  C291.497498,57.247253 291.695190,57.443935 291.797760,57.552059  C292.058777,57.303867 292.319794,57.055672 292.272766,56.484104 M320.444397,82.181229  C320.803772,82.185875 321.163147,82.190529 321.522522,82.195175  C321.524445,82.046097 321.536621,81.767448 321.526733,81.766670  C321.169159,81.738266 320.809540,81.735764 320.444397,82.181229 M35.272858,76.483994  C35.011944,76.731903 34.748577,76.977524 34.503845,77.240486  C34.497540,77.247261 34.695282,77.443939 34.797863,77.552055  C35.058880,77.303833 35.319893,77.055611 35.272858,76.483994 M107.818932,75.444397  C107.814262,75.803795 107.809593,76.163200 107.804932,76.522598  C107.954018,76.524490 108.232674,76.536690 108.233467,76.526794  C108.261879,76.169197 108.264404,75.809540 107.818932,75.444397 M81.444031,24.180878  C81.803406,24.185474 82.162949,24.193413 82.521248,24.175926  C82.530472,24.175476 82.536354,23.766895 82.526596,23.766125  C82.168991,23.737833 81.809334,23.735331 81.444031,24.180878 M209.475830,38.501026  C209.475830,38.501026 209.505951,38.482216 209.475830,38.501026 M47.512913,29.433723  C47.512913,29.433723 47.562325,29.522514 47.512913,29.433723 M42.525272,30.505938  C42.525272,30.505938 42.489029,30.498770 42.525272,30.505938 z"></path><path fill="#161415" opacity="1.000000" stroke="none" d="M351.000000,50.562500  C348.933807,50.672829 346.867584,50.345657 344.405151,49.676292  C344.004700,48.891880 344.000519,48.449665 343.996338,48.007446  C344.301880,43.963165 347.097839,43.761326 350.589661,44.000008  C351.000000,46.041668 351.000000,48.083332 351.000000,50.562500 z"></path><path fill="#161415" opacity="1.000000" stroke="none" d="M44.449982,115.000000  C43.731716,113.285645 43.463432,111.571289 43.248890,110.200348  C46.113605,110.618561 48.845997,110.835335 51.455883,111.519455  C52.156788,111.703171 52.484722,113.309784 52.991936,114.631607  C50.299988,115.000000 47.599972,115.000000 44.449982,115.000000 z"></path><path fill="#151314" opacity="1.000000" stroke="none" d="M63.428459,115.000000  C63.608959,113.697510 64.217918,112.395020 64.826881,111.092529  C66.185089,112.146622 67.543304,113.200722 68.950760,114.627411  C67.285645,115.000000 65.571281,115.000000 63.428459,115.000000 z"></path><path fill="#F4F3F4" opacity="1.000000" stroke="none" d="M24.485855,55.120258  C24.445330,58.079742 24.404806,61.039227 24.360085,64.716095  C24.704088,66.152626 25.052286,66.871765 25.400484,67.590912  C27.952805,81.185577 41.222759,92.392662 55.648579,93.136803  C70.684837,93.912430 84.878906,84.340874 89.272705,70.659698  C93.663666,56.987381 89.938385,45.527714 79.728745,35.332363  C82.360100,30.865274 85.009392,26.367735 87.999138,21.292217  C98.732178,30.569202 104.942619,41.485256 106.428543,55.882526  C106.517540,59.204414 106.623199,61.671387 106.728867,64.138359  C106.488464,65.811661 106.248070,67.484962 105.790314,69.769341  C105.485252,70.948257 105.397560,71.516090 105.309875,72.083931  C102.909157,78.861359 100.090088,85.256409 95.324165,90.952095  C84.179878,104.270500 69.865875,109.803841 53.126217,108.123199  C45.920700,107.399765 39.006302,103.776649 31.524359,101.250565  C30.889591,100.784615 30.644558,100.724403 30.353970,100.849617  C27.893240,98.909851 25.432508,96.970085 22.661064,95.342987  C22.350353,95.655663 22.339378,95.563408 22.339378,95.563408  C22.085842,94.668678 22.100693,93.525833 21.537872,92.917023  C14.810882,85.640312 11.083469,77.048759 9.467151,67.315796  C8.865337,63.691864 9.288845,61.283787 12.906097,59.793049  C14.714703,59.047688 16.319185,57.807030 18.481312,56.529697  C19.322012,55.920483 19.697395,55.571964 20.072781,55.223450  C21.152981,54.730965 22.233183,54.238483 23.715340,54.086655  C24.240149,54.658295 24.363001,54.889275 24.485855,55.120258 z"></path><path fill="#161415" opacity="1.000000" stroke="none" d="M130.003448,90.000000  C114.845322,90.024994 115.861877,91.242218 116.036781,76.677612  C116.142166,67.901604 116.722610,59.130997 116.804131,50.355305  C116.817467,48.919540 115.700371,46.736450 114.502228,46.165703  C111.038368,44.515659 110.501465,42.127865 111.502327,38.499542  C119.815285,38.499542 128.123489,38.499542 136.000000,38.499542  C136.000000,48.002148 136.000000,57.282150 136.000000,66.562157  C136.000000,70.673973 136.000000,74.785789 136.000000,79.203629  C137.470154,79.944122 140.074570,80.544075 141.466431,82.177353  C142.625061,83.536934 142.934219,86.249580 142.487488,88.087761  C142.257416,89.034439 139.600388,89.718185 137.965820,89.920097  C135.509018,90.223564 132.987076,89.999672 130.003448,90.000000 z"></path><path fill="#ECEBEB" opacity="1.000000" stroke="none" d="M225.843445,76.562653  C212.311829,82.792664 201.440674,80.179016 196.106354,66.303795  C192.200760,56.144924 196.805237,46.852184 209.121948,41.127304  C212.629608,40.879448 215.369370,40.731342 218.109116,40.583237  C232.812500,44.088680 237.870743,60.364403 228.741974,73.528122  C227.507355,74.845825 226.675400,75.704239 225.843445,76.562653 M223.068069,61.309155  C223.077499,60.313923 223.475677,59.070374 223.026932,58.367790  C221.365036,55.765926 219.824036,51.863663 217.485046,51.230606  C214.633347,50.458790 210.427399,51.666531 207.879837,53.504715  C204.068146,56.255028 204.045181,61.285107 206.406784,64.751732  C208.167465,67.336258 212.002533,69.565498 215.137512,69.908562  C219.866943,70.426102 222.154709,66.527611 223.068069,61.309155 z"></path><path fill="#ECEBEB" opacity="1.000000" stroke="none" d="M251.510620,55.866322  C253.083694,50.569199 254.943298,45.470020 260.708740,42.596832  C260.950836,42.291920 260.991180,42.268475 260.991180,42.268471  C262.409790,41.819256 263.828369,41.370045 266.046265,40.876022  C269.263672,40.761974 271.681763,40.692741 274.099854,40.623505  C287.986359,44.771694 291.398224,56.755283 288.381226,66.076744  C283.518005,81.102364 266.645660,85.206696 254.671829,72.550705  C253.368469,69.443230 252.454712,66.785889 251.656464,63.680313  C251.684860,60.776829 251.597748,58.321575 251.510620,55.866322 M275.624664,68.305695  C276.545563,67.145691 277.684082,66.097397 278.347382,64.805176  C280.511719,60.588707 279.437958,54.997467 276.008606,52.015335  C272.890564,49.303921 269.354950,49.082184 265.802551,50.852440  C262.071411,52.711761 260.086273,58.014141 261.132141,62.522068  C262.658325,69.100304 268.225922,71.617958 275.624664,68.305695 z"></path><path fill="#EEEEEE" opacity="1.000000" stroke="none" d="M308.216675,76.082489  C308.394379,66.478500 308.577148,56.874607 308.745300,47.270458  C308.776764,45.472580 308.749786,43.673676 308.749786,40.764080  C311.795685,41.343357 314.210297,41.887032 316.653076,42.230091  C317.805389,42.391922 319.152374,42.499752 320.170929,42.066807  C327.045624,39.144623 333.328522,39.835663 339.464905,45.202141  C340.259796,46.428886 340.635742,47.214699 340.990875,48.309944  C341.525848,49.464455 342.081635,50.309532 342.637421,51.154610  C342.616455,51.332195 342.595520,51.509777 342.711853,52.306984  C342.956421,61.343155 343.063690,69.759705 343.170959,78.176254  C341.708038,78.417763 340.245819,78.663788 338.782013,78.899910  C334.602570,79.574097 333.243408,77.819763 333.534637,73.649513  C333.893463,68.512741 333.725800,63.329700 333.599579,58.171215  C333.474030,53.041592 330.948975,50.114365 326.797943,49.915134  C322.349365,49.701622 318.889740,52.457043 318.425171,57.369347  C317.972351,62.157761 318.178223,67.011871 318.161957,71.837372  C318.136200,79.481171 316.924438,80.306740 308.763458,77.551338  C308.443359,76.780220 308.330017,76.431351 308.216675,76.082489 z"></path><path fill="#F2F2F2" opacity="1.000000" stroke="none" d="M151.864777,77.018814  C148.773911,77.805367 145.683044,78.591919 142.096024,79.504723  C142.096024,65.966721 142.096024,53.797974 142.096024,40.712276  C145.228699,41.334225 147.863312,41.857288 150.497910,42.380352  C150.441971,42.751221 150.386032,43.122089 150.330093,43.492958  C152.276215,42.635468 154.222321,41.777977 156.976974,40.878510  C159.899963,40.732109 162.014404,40.627682 164.128845,40.523254  C165.752075,41.185276 167.375320,41.847298 169.487152,42.836647  C170.932861,43.925468 171.889999,44.686962 172.847122,45.448456  C177.108963,52.746372 175.823318,60.797993 175.985291,68.649338  C176.043182,71.455582 176.016693,74.263557 175.563477,77.670258  C172.512741,78.269775 169.927261,78.269775 166.720093,78.269775  C166.720093,72.026367 166.836655,65.995941 166.657990,59.974266  C166.593948,57.816002 165.817352,55.678883 165.365967,53.532116  C163.134567,52.322716 160.956528,50.241680 158.659714,50.101131  C154.888245,49.870338 152.506424,52.529663 151.548676,57.058327  C151.620071,64.242325 151.742432,70.630569 151.864777,77.018814 z"></path><path fill="#EEEDED" opacity="1.000000" stroke="none" d="M66.623787,26.620087  C64.662621,26.668131 62.701450,26.716175 60.019653,26.724136  C56.132778,26.818016 52.966530,26.951982 49.800282,27.085949  C47.459728,27.530506 45.119171,27.975063 42.056889,28.556705  C44.232674,24.629633 46.118053,21.226706 48.273499,17.387993  C48.747726,16.791557 48.807747,16.588331 48.723614,16.342527  C53.494431,9.508816 63.972179,8.207960 72.246109,13.493696  C70.157570,17.681425 68.063072,21.881117 66.342369,26.353163  C66.716171,26.625519 66.623787,26.620085 66.623787,26.620087 z"></path><path fill="#161415" opacity="1.000000" stroke="none" d="M207.408478,36.059402  C206.741837,32.082764 207.908371,30.772680 212.276550,31.681438  C216.513550,32.562908 221.092117,31.668633 225.455475,32.147903  C227.023193,32.320103 228.985001,33.951187 229.669510,35.425869  C230.164368,36.491989 229.264999,39.162140 228.228226,39.729439  C227.049103,40.374607 224.435181,40.083897 223.469055,39.145557  C218.809479,34.619949 212.698959,38.662472 207.408478,36.059402 z"></path><path fill="#161415" opacity="1.000000" stroke="none" d="M66.723999,26.579914  C68.841629,27.169870 70.355080,27.225052 71.298416,24.477650  C71.650497,23.452257 74.219917,23.188215 75.778297,22.577019  C75.624481,24.109652 75.558670,25.657518 75.296570,27.171400  C74.887230,29.535774 74.452896,31.906328 73.827347,34.219696  C73.247528,36.363953 72.865685,39.839565 71.583389,40.262356  C68.469307,41.289135 66.929237,38.707500 66.778893,35.697163  C66.642319,32.962650 66.745682,30.216152 66.683533,27.047512  C66.623787,26.620085 66.716171,26.625519 66.723999,26.579914 z"></path><path fill="#161415" opacity="1.000000" stroke="none" d="M48.682632,34.559280  C51.325180,31.488754 58.729965,30.863167 60.700329,33.455479  C61.567795,34.596752 62.196209,36.843456 61.651653,37.967361  C59.740173,41.912495 55.811832,41.244823 52.437923,40.801888  C49.321106,40.392708 47.080894,38.723969 48.682632,34.559280 z"></path><path fill="#161415" opacity="1.000000" stroke="none" d="M106.843376,28.174400  C106.354279,30.704769 105.787041,32.825726 105.219803,34.946686  C104.704277,34.916161 104.188751,34.885639 103.673218,34.855118  C100.821312,31.000269 97.969398,27.145420 94.776947,22.830284  C96.264664,22.356129 97.165627,22.137779 98.012421,21.788223  C104.923378,18.935411 105.006729,18.978796 106.290237,26.349773  C106.374626,26.834387 106.603546,27.293833 106.843376,28.174400 z"></path><path fill="#161415" opacity="1.000000" stroke="none" d="M232.983276,47.957520  C232.870148,46.874027 232.910690,45.374161 233.204575,45.322758  C236.286392,44.783718 239.418091,44.168968 242.515076,44.263107  C243.683075,44.298615 245.560684,46.020927 245.713074,47.161579  C245.856003,48.231323 244.397583,50.049568 243.199326,50.647171  C241.036057,51.726048 238.541275,52.140240 236.022141,52.879807  C235.069168,51.273075 234.161850,49.743332 232.983276,47.957520 z"></path><path fill="#4D4B4B" opacity="1.000000" stroke="none" d="M165.256073,54.020706  C165.817352,55.678883 166.593948,57.816002 166.657990,59.974266  C166.836655,65.995941 166.720093,72.026367 166.720093,78.269775  C169.927261,78.269775 172.512741,78.269775 175.551758,78.139374  C175.185425,82.786018 171.285767,81.112556 168.903458,80.688850  C167.426651,80.426193 165.454803,77.637970 165.352448,75.887108  C164.937088,68.781425 165.159180,61.638493 165.256073,54.020706 z"></path><path fill="#161415" opacity="1.000000" stroke="none" d="M154.915222,83.561630  C154.883575,86.656525 155.788589,90.074249 151.295486,89.923935  C147.928513,89.811295 146.328461,87.385033 147.235870,84.576241  C147.767456,82.930771 150.263107,81.748299 152.109726,80.828140  C152.534531,80.616470 153.921509,82.335777 154.915222,83.561630 z"></path><path fill="#161415" opacity="1.000000" stroke="none" d="M154.054138,60.007172  C159.872910,61.988132 156.006882,67.417961 157.818039,70.940742  C158.773987,72.800110 158.287872,75.741737 154.431641,75.517723  C154.033966,70.044243 154.044052,65.025711 154.054138,60.007172 z"></path><path fill="#090808" opacity="1.000000" stroke="none" d="M343.584351,77.955292  C343.063690,69.759705 342.956421,61.343155 342.929474,52.463783  C343.551544,52.325710 344.570221,52.657650 344.565430,52.974155  C344.440948,61.228512 344.210205,69.481277 343.584351,77.955292 z"></path><path fill="#161415" opacity="1.000000" stroke="none" d="M172.915390,45.109592  C171.889999,44.686962 170.932861,43.925468 169.861588,42.880539  C170.646072,40.863197 171.544708,39.129288 172.443344,37.395378  C173.703415,38.663906 174.926941,39.971718 176.235199,41.188435  C177.268158,42.149124 178.405319,42.997780 179.408661,45.259583  C178.197510,45.032108 176.994308,44.716068 175.772583,44.606205  C174.855286,44.523724 173.914169,44.706207 172.915390,45.109592 z"></path><path fill="#161415" opacity="1.000000" stroke="none" d="M206.615311,36.052544  C204.311569,38.598095 201.669296,41.248894 198.859970,43.708920  C198.592911,43.942768 196.604431,43.012684 196.584686,42.570709  C196.533554,41.426117 196.808823,39.554962 197.535629,39.213951  C200.309525,37.912430 203.312927,37.100113 206.615311,36.052544 z"></path><path fill="#161415" opacity="1.000000" stroke="none" d="M22.396404,95.661758  C24.097775,98.196487 25.753092,100.725121 27.406069,103.255249  C21.590380,102.582764 16.116055,97.544525 16.876829,93.409775  C18.473352,94.193764 20.037655,94.961929 21.970667,95.646744  C22.339378,95.563408 22.350353,95.655663 22.396404,95.661758 z"></path><path fill="#161415" opacity="1.000000" stroke="none" d="M291.016693,67.032333  C292.802917,64.399605 294.590302,62.147617 296.952911,59.170933  C298.918182,64.643906 296.654572,67.243538 293.655457,69.373444  C293.379517,69.569420 291.925079,68.105972 291.016693,67.032333 z"></path><path fill="#161415" opacity="1.000000" stroke="none" d="M20.052971,54.801407  C19.697395,55.571964 19.322012,55.920483 18.676025,56.239304  C15.844153,54.904652 13.282886,53.599701 9.977695,51.915726  C16.498629,48.635857 19.088272,49.557602 20.052971,54.801407 z"></path><path fill="#020202" opacity="1.000000" stroke="none" d="M154.030182,59.648663  C154.044052,65.025711 154.033966,70.044243 154.036713,75.529045  C153.528214,76.302750 153.006882,76.610191 152.175171,76.968224  C151.742432,70.630569 151.620071,64.242325 151.691193,57.418991  C152.591843,57.752655 153.299026,58.521404 154.030182,59.648663 z"></path><path fill="#161415" opacity="1.000000" stroke="none" d="M77.121780,11.920110  C76.147675,10.685647 75.299286,9.795166 74.450897,8.904685  C74.486336,8.409540 74.521767,7.914396 74.557205,7.419251  C76.760674,7.604246 79.103088,7.430387 81.081581,8.196435  C81.662949,8.421535 81.212593,11.311299 81.235085,12.979832  C79.905891,12.741252 78.576698,12.502672 77.121780,11.920110 z"></path><path fill="#050404" opacity="1.000000" stroke="none" d="M307.883759,75.809372  C308.330017,76.431351 308.443359,76.780220 308.403748,77.373215  C307.500732,76.539375 306.118530,75.472450 306.099518,74.381744  C305.928406,64.569664 305.996613,54.753395 305.995483,44.134979  C305.995972,42.885071 305.995514,42.438549 305.995087,41.992020  C306.321747,43.895313 306.878571,45.791698 306.935974,47.703068  C307.214386,56.978596 307.358917,66.258141 307.883759,75.809372 z"></path><path fill="#020202" opacity="1.000000" stroke="none" d="M138.989883,54.032784  C138.989868,50.083580 138.989868,46.627373 138.989868,43.171165  C139.236938,43.177464 139.484009,43.183762 139.731079,43.190060  C139.731079,54.400356 139.731079,65.610657 139.731079,76.820953  C139.484024,76.824860 139.236954,76.828766 138.989899,76.832672  C138.989899,69.397041 138.989899,61.961407 138.989883,54.032784 z"></path><path fill="#161415" opacity="1.000000" stroke="none" d="M283.703735,42.035942  C283.857208,40.557335 284.225098,39.378857 284.592987,38.200386  C286.213104,39.520805 288.001465,40.694046 289.358124,42.244930  C289.806610,42.757652 289.142059,44.244038 288.986420,45.285252  C287.296997,44.302193 285.607574,43.319130 283.703735,42.035942 z"></path><path fill="#161415" opacity="1.000000" stroke="none" d="M48.363991,16.109943  C48.807747,16.588331 48.747726,16.791557 48.387215,17.007383  C47.415623,17.138376 46.547337,17.429466 45.796352,17.244446  C44.310013,16.878258 42.888500,16.248966 41.440186,15.728442  C42.428490,14.396867 43.346760,13.003118 44.443443,11.767751  C44.822571,11.340681 45.645214,11.307340 46.632637,11.047075  C47.334789,12.625786 47.669579,14.251572 48.363991,16.109943 z"></path><path fill="#161415" opacity="1.000000" stroke="none" d="M304.335938,84.864014  C303.209869,83.216400 302.458282,81.630974 301.706696,80.045547  C303.205292,80.015961 304.781219,79.699326 306.171051,80.073586  C306.905029,80.271225 307.967804,82.150146 307.752747,82.444328  C307.005371,83.466621 305.763947,84.127739 304.335938,84.864014 z"></path><path fill="#161415" opacity="1.000000" stroke="none" d="M98.503021,97.354996  C96.289398,99.208008 94.286545,100.765266 92.283699,102.322517  C91.712601,101.654968 91.141495,100.987419 90.570396,100.319878  C93.279404,98.864388 95.988411,97.408897 98.697418,95.953407  C98.463707,95.330162 98.229988,94.706917 97.996277,94.083664  C98.235451,95.075523 98.474625,96.067383 98.503021,97.354996 z"></path><path fill="#161415" opacity="1.000000" stroke="none" d="M261.001953,41.880501  C260.991180,42.268475 260.950836,42.291920 260.929199,42.299408  C260.195648,41.896427 259.035919,41.624439 258.857910,41.048870  C258.372162,39.477989 258.118683,37.766483 258.230530,36.142181  C258.250977,35.845425 260.428467,35.697220 261.610229,35.480442  C261.490814,36.993671 261.381195,38.507782 261.246368,40.019634  C261.202301,40.513615 261.092499,41.001728 261.001953,41.880501 z"></path><path fill="#131112" opacity="1.000000" stroke="none" d="M251.540955,64.128540  C252.454712,66.785889 253.368469,69.443230 254.347900,72.478188  C253.877640,72.895638 253.341736,72.935478 252.242401,72.681458  C250.786011,70.591675 249.893005,68.795753 249.000000,66.999832  C249.193924,66.005264 249.387848,65.010704 250.113129,64.020676  C250.644470,64.025223 251.080750,64.180122 251.080750,64.180122  C251.080750,64.180122 251.540955,64.128540 251.540955,64.128540 z"></path><path fill="#161415" opacity="1.000000" stroke="none" d="M248.690186,67.176483  C249.893005,68.795753 250.786011,70.591675 251.839508,72.693802  C251.880569,74.802589 251.668228,77.003540 249.357712,74.664673  C247.401154,72.684120 245.582748,70.195335 248.690186,67.176483 z"></path><path fill="#0C0A0A" opacity="1.000000" stroke="none" d="M50.000679,27.495770  C52.966530,26.951982 56.132778,26.818016 59.659386,26.834667  C57.061974,30.654076 53.622658,29.185253 50.000679,27.495770 z"></path><path fill="#4A4949" opacity="1.000000" stroke="none" d="M251.656464,63.680313  C251.540955,64.128540 251.080750,64.180122 251.080750,64.180122  C251.080750,64.180122 250.644470,64.025223 250.424072,63.964905  C250.431625,61.311451 250.659561,58.718315 251.199066,55.995750  C251.597748,58.321575 251.684860,60.776829 251.656464,63.680313 z"></path><path fill="#161415" opacity="1.000000" stroke="none" d="M282.945374,81.001831  C283.619843,82.063271 283.985870,82.974182 284.351868,83.885086  C283.496094,84.035164 282.383362,84.585938 281.845154,84.240799  C281.050720,83.731339 280.665039,82.584457 280.105255,81.709030  C280.949127,81.423119 281.792999,81.137207 282.945374,81.001831 z"></path><path fill="#161415" opacity="1.000000" stroke="none" d="M193.422363,71.113243  C193.264114,72.352448 192.754898,73.526825 192.245682,74.701195  C191.540558,74.241386 190.835419,73.781578 190.130295,73.321777  C191.110657,72.563988 192.091019,71.806198 193.422363,71.113243 z"></path><path fill="#161415" opacity="1.000000" stroke="none" d="M47.314274,84.862030  C46.737709,83.707191 46.518402,82.611542 46.299099,81.515900  C47.312180,81.709274 48.325260,81.902641 49.338345,82.096008  C48.782742,83.037743 48.227139,83.979485 47.314274,84.862030 z"></path><path fill="#474646" opacity="1.000000" stroke="none" d="M217.976440,40.250191  C215.369370,40.731342 212.629608,40.879448 209.435852,40.968391  C211.935822,40.578533 214.889786,40.247837 217.976440,40.250191 z"></path><path fill="#454545" opacity="1.000000" stroke="none" d="M107.025543,63.959042  C106.623199,61.671387 106.517540,59.204414 106.566399,56.298077  C106.921356,58.499050 107.121788,61.139385 107.025543,63.959042 z"></path><path fill="#131112" opacity="1.000000" stroke="none" d="M225.880829,76.951843  C226.675400,75.704239 227.507355,74.845825 228.617722,73.859734  C228.600677,75.980148 228.305237,78.228241 228.009781,80.476326  C227.535797,80.453087 227.061829,80.429840 226.587845,80.406593  C226.364639,79.384735 226.141418,78.362885 225.880829,76.951843 z"></path><path fill="#161415" opacity="1.000000" stroke="none" d="M88.497665,16.559673  C86.945312,16.807505 85.528465,16.740118 84.111618,16.672731  C84.335358,15.845621 84.559105,15.018512 84.782852,14.191403  C86.066292,14.875754 87.349739,15.560106 88.497665,16.559673 z"></path><path fill="#454444" opacity="1.000000" stroke="none" d="M274.086304,40.369358  C271.681763,40.692741 269.263672,40.761974 266.398987,40.747643  C266.244263,40.273720 266.536133,39.883354 267.386108,39.277824  C269.632019,39.061016 271.319885,39.059380 273.007721,39.057747  C273.362701,39.410236 273.717712,39.762726 274.086304,40.369358 z"></path><path fill="#161415" opacity="1.000000" stroke="none" d="M163.330322,35.558159  C159.939636,37.383831 159.939636,37.383831 159.329742,32.935822  C160.931870,33.906593 162.049545,34.583817 163.330322,35.558159 z"></path><path fill="#131112" opacity="1.000000" stroke="none" d="M238.592926,59.466202  C235.546158,56.606808 237.963058,56.123547 241.500549,54.746693  C240.202240,57.043919 239.552109,58.194263 238.592926,59.466202 z"></path><path fill="#4D4B4B" opacity="1.000000" stroke="none" d="M163.996826,40.196869  C162.014404,40.627682 159.899963,40.732109 157.339493,40.741562  C159.217239,40.387882 161.541031,40.129185 163.996826,40.196869 z"></path><path fill="#161415" opacity="1.000000" stroke="none" d="M159.623169,53.609116  C160.846222,54.093639 161.817627,54.824726 162.789032,55.555817  C162.370209,55.968330 161.951385,56.380844 161.532547,56.793358  C160.812195,55.814129 160.091858,54.834904 159.623169,53.609116 z"></path><path fill="#131112" opacity="1.000000" stroke="none" d="M272.919983,38.686783  C271.319885,39.059380 269.632019,39.061016 267.526794,39.072723  C267.608398,36.429771 269.008423,36.242138 272.919983,38.686783 z"></path><path fill="#161415" opacity="1.000000" stroke="none" d="M28.429613,58.176826  C28.498098,57.117477 28.763979,56.302956 29.029860,55.488434  C29.526054,55.823589 30.022247,56.158741 30.518442,56.493896  C29.887964,57.136482 29.257486,57.779072 28.429613,58.176826 z"></path><path fill="#161415" opacity="1.000000" stroke="none" d="M80.558701,44.673534  C81.270828,44.163418 82.125130,43.947796 82.979431,43.732170  C83.084488,44.302597 83.189552,44.873028 83.294617,45.443459  C82.430023,45.284985 81.565445,45.126507 80.558701,44.673534 z"></path><path fill="#161415" opacity="1.000000" stroke="none" d="M162.204285,81.058624  C161.392273,80.869560 160.806915,80.447502 160.221558,80.025452  C160.771057,79.505760 161.320572,78.986069 161.870071,78.466377  C162.057022,79.252800 162.243973,80.039223 162.204285,81.058624 z"></path><path fill="#161415" opacity="1.000000" stroke="none" d="M43.387409,32.627419  C43.156338,33.481022 42.692017,34.096210 42.227695,34.711403  C41.913200,34.390556 41.598705,34.069714 41.284206,33.748871  C41.907524,33.295582 42.530842,32.842293 43.387409,32.627419 z"></path><path fill="#161415" opacity="1.000000" stroke="none" d="M338.178467,38.303123  C338.811066,38.929066 339.119720,39.633167 339.428375,40.337273  C338.988953,40.451447 338.549500,40.565613 338.110077,40.679779  C338.024902,39.913616 337.939697,39.147453 338.178467,38.303123 z"></path><path fill="#131112" opacity="1.000000" stroke="none" d="M305.771179,41.750519  C305.995514,42.438549 305.995972,42.885071 305.991821,43.666412  C305.078186,43.405586 304.169159,42.809944 303.260101,42.214302  C304.022491,41.979202 304.784912,41.744106 305.771179,41.750519 z"></path><path fill="#161415" opacity="1.000000" stroke="none" d="M323.761383,54.491314  C324.595093,54.652660 325.195190,55.014091 325.795319,55.375526  C325.402740,55.769058 325.010162,56.162582 324.617554,56.556107  C324.254303,55.934536 323.891052,55.312965 323.761383,54.491314 z"></path><path fill="#161415" opacity="1.000000" stroke="none" d="M83.247002,71.704506  C83.786797,71.028313 84.377632,70.661301 84.968460,70.294281  C85.146706,70.691521 85.324959,71.088753 85.503220,71.485985  C84.768158,71.661880 84.033096,71.837784 83.247002,71.704506 z"></path><path fill="#161415" opacity="1.000000" stroke="none" d="M87.492279,62.269188  C86.666733,62.120380 86.048836,61.742146 85.430939,61.363911  C85.836731,60.979713 86.242516,60.595516 86.648308,60.211315  C86.998848,60.820793 87.349388,61.430275 87.492279,62.269188 z"></path><path fill="#161415" opacity="1.000000" stroke="none" d="M11.884411,89.875275  C12.670841,89.949730 13.235334,90.247223 13.799827,90.544708  C13.384326,90.961426 12.968826,91.378151 12.553328,91.794876  C12.256377,91.229355 11.959427,90.663826 11.884411,89.875275 z"></path><path fill="#131112" opacity="1.000000" stroke="none" d="M248.875366,49.115753  C248.949829,48.329308 249.247314,47.764816 249.544800,47.200329  C249.961548,47.615883 250.378296,48.031429 250.795044,48.446972  C250.229507,48.743881 249.663971,49.040794 248.875366,49.115753 z"></path><path fill="#090808" opacity="1.000000" stroke="none" d="M342.902893,51.005974  C342.081635,50.309532 341.525848,49.464455 341.239197,48.301861  C341.508331,47.984344 342.004333,47.954166 342.004333,47.954166  C342.447021,47.966835 342.889679,47.979504 343.664368,47.999809  C344.000519,48.449665 344.004700,48.891880 344.011841,49.665802  C343.732697,50.284115 343.450531,50.570724 342.902893,51.005974 z"></path><path fill="#4D4B4B" opacity="1.000000" stroke="none" d="M24.758795,55.054489  C24.363001,54.889275 24.240149,54.658295 24.073158,54.037369  C24.414743,53.306526 24.800463,52.965626 25.186182,52.624725  C25.134699,53.412724 25.083216,54.200726 24.758795,55.054489 z"></path><path fill="#161415" opacity="1.000000" stroke="none" d="M47.320877,10.941608  C47.198917,10.147105 47.397835,9.294211 47.596756,8.441318  C47.979233,8.583369 48.361710,8.725420 48.744186,8.867471  C48.376709,9.539386 48.009232,10.211302 47.320877,10.941608 z"></path><path fill="#161415" opacity="1.000000" stroke="none" d="M104.754555,86.221016  C104.411942,86.784096 104.006813,87.066582 103.601685,87.349060  C103.492256,86.930870 103.382835,86.512680 103.273407,86.094498  C103.746292,86.043137 104.219162,85.991776 104.754555,86.221016 z"></path><path fill="#161415" opacity="1.000000" stroke="none" d="M74.252800,85.495789  C73.547348,85.501091 73.046448,85.306351 72.545555,85.111610  C72.819489,84.812859 73.093422,84.514107 73.367355,84.215363  C73.730690,84.575485 74.094025,84.935616 74.252800,85.495789 z"></path><path fill="#131112" opacity="1.000000" stroke="none" d="M341.990051,47.587418  C342.004333,47.954166 341.508331,47.984344 341.260010,47.992424  C340.635742,47.214699 340.259796,46.428886 339.776978,45.322685  C340.438660,45.741753 341.207184,46.481213 341.990051,47.587418 z"></path><path fill="#131112" opacity="1.000000" stroke="none" d="M292.426788,56.645790  C292.319794,57.055672 292.058777,57.303867 291.797760,57.552055  C291.695190,57.443935 291.497498,57.247253 291.503815,57.240479  C291.748535,56.977554 292.011871,56.731972 292.426788,56.645790 z"></path><path fill="#161415" opacity="1.000000" stroke="none" d="M320.447296,81.955452  C320.809540,81.735764 321.169159,81.738266 321.526733,81.766670  C321.536621,81.767448 321.524445,82.046097 321.522522,82.195175  C321.163147,82.190529 320.803772,82.185875 320.447296,81.955452 z"></path><path fill="#161415" opacity="1.000000" stroke="none" d="M35.426880,76.645691  C35.319893,77.055611 35.058880,77.303833 34.797863,77.552055  C34.695282,77.443939 34.497540,77.247261 34.503845,77.240486  C34.748577,76.977524 35.011944,76.731903 35.426880,76.645691 z"></path><path fill="#161415" opacity="1.000000" stroke="none" d="M108.044724,75.447281  C108.264404,75.809540 108.261879,76.169197 108.233467,76.526794  C108.232674,76.536690 107.954018,76.524490 107.804932,76.522598  C107.809593,76.163200 107.814262,75.803795 108.044724,75.447281 z"></path><path fill="#454545" opacity="1.000000" stroke="none" d="M105.577820,72.064758  C105.397560,71.516090 105.485252,70.948257 105.809998,70.194206  C105.979958,70.687195 105.912872,71.366386 105.577820,72.064758 z"></path><path fill="#161415" opacity="1.000000" stroke="none" d="M30.102556,101.006554  C30.644558,100.724403 30.889591,100.784615 31.149738,101.223221  C30.808315,101.787041 30.406225,102.157890 30.004135,102.528748  C29.953140,102.073662 29.902142,101.618576 30.102556,101.006554 z"></path><path fill="#4D4B4B" opacity="1.000000" stroke="none" d="M25.558514,67.294968  C25.052286,66.871765 24.704088,66.152626 24.486633,65.142181  C24.983767,65.566933 25.350155,66.282982 25.558514,67.294968 z"></path><path fill="#161415" opacity="1.000000" stroke="none" d="M81.446999,23.955086  C81.809334,23.735331 82.168991,23.737833 82.526596,23.766125  C82.536354,23.766895 82.530472,24.175476 82.521248,24.175926  C82.162949,24.193413 81.803406,24.185474 81.446999,23.955086 z"></path><path fill="#474646" opacity="1.000000" stroke="none" d="M209.490891,38.491623  C209.505951,38.482216 209.475830,38.501026 209.490891,38.491623 z"></path><path fill="#0C0A0A" opacity="1.000000" stroke="none" d="M47.537621,29.478119  C47.562325,29.522514 47.512913,29.433723 47.537621,29.478119 z"></path><path fill="#EEEDED" opacity="1.000000" stroke="none" d="M42.507149,30.502354  C42.489029,30.498770 42.525272,30.505938 42.507149,30.502354 z"></path><path fill="#100E0F" opacity="1.000000" stroke="none" d="M223.095245,61.730217  C222.154709,66.527611 219.866943,70.426102 215.137512,69.908562  C212.002533,69.565498 208.167465,67.336258 206.406784,64.751732  C204.045181,61.285107 204.068146,56.255028 207.879837,53.504715  C210.427399,51.666531 214.633347,50.458790 217.485046,51.230606  C219.824036,51.863663 221.365036,55.765926 223.026932,58.367790  C223.475677,59.070374 223.077499,60.313923 223.095245,61.730217 z"></path><path fill="#1E1C1D" opacity="1.000000" stroke="none" d="M275.301208,68.544373  C268.225922,71.617958 262.658325,69.100304 261.132141,62.522068  C260.086273,58.014141 262.071411,52.711761 265.802551,50.852440  C269.354950,49.082184 272.890564,49.303921 276.008606,52.015335  C279.437958,54.997467 280.511719,60.588707 278.347382,64.805176  C277.684082,66.097397 276.545563,67.145691 275.301208,68.544373 z"></path></svg>