<svg xmlns="http://www.w3.org/2000/svg" xmlns:xlink="http://www.w3.org/1999/xlink" id="Layer_1" x="0px" y="0px" width="100%" viewBox="0 0 832 384" xml:space="preserve"><path fill="#000000" opacity="1.000000" stroke="none" d="M337.511902,265.335144  C317.524353,312.994751 283.563660,345.679352 234.695892,361.208710  C183.949585,377.335052 135.481842,370.742859 91.007484,340.923950  C53.541737,315.804138 31.000870,280.623413 23.508968,236.039764  C22.490892,229.981277 22.350313,223.776108 21.782951,217.640762  C21.492609,214.501114 22.601871,212.319855 25.477102,210.691376  C40.262585,202.317139 54.965786,193.797684 69.704781,185.341232  C70.834190,184.693237 71.930840,183.785980 73.924698,184.637527  C74.629196,189.350204 73.193092,194.219070 72.924339,199.088593  C71.464561,225.539093 78.115448,249.740417 93.822365,270.968994  C117.590263,303.092316 150.037079,318.225586 189.809509,316.604095  C241.777908,314.485321 286.032196,274.768921 293.661713,223.555832  C299.041199,187.446121 287.946472,156.526672 262.211761,130.797913  C256.650635,125.238060 256.642456,125.410835 260.750275,118.500938  C268.070984,106.186516 275.254730,93.790688 282.490601,81.425888  C283.156067,80.288742 283.601868,78.982544 285.723724,78.034142  C306.835358,94.974182 323.333069,115.971458 334.410004,140.952347  C352.492432,181.732132 352.943970,223.205368 337.511902,265.335144 z"></path><path fill="#000000" opacity="1.000000" stroke="none" d="M622.489136,186.527069  C627.991821,182.424698 631.650696,177.323044 634.143005,171.387131  C637.172852,164.171143 636.014282,162.438675 628.289368,162.381775  C623.292175,162.344955 618.293945,162.420944 613.297241,162.361084  C589.474976,162.075714 570.944519,143.781113 570.721680,120.360016  C570.498230,96.883331 589.014771,77.780884 612.744690,77.007172  C635.306274,76.271553 655.790710,95.784325 656.227478,118.505379  C656.352295,124.999817 656.360962,131.500870 656.215820,137.994263  C656.141907,141.300751 657.140381,142.808029 660.742798,142.800308  C700.222778,142.715698 739.703552,142.861908 779.182861,142.675766  C791.123657,142.619461 801.296631,131.434113 801.577332,118.811943  C801.729187,111.984962 801.752625,105.151360 801.640381,98.323929  C801.588379,95.162827 802.743103,93.731110 805.979004,93.781372  C824.325623,94.066330 820.905029,91.169731 821.218445,107.939461  C821.326904,113.745743 821.358459,119.538345 820.492310,125.367195  C817.392639,146.227051 799.624573,162.198227 778.443359,162.286774  C740.129944,162.446945 701.814941,162.448212 663.501953,162.255814  C658.208069,162.229233 656.015442,163.567825 655.060181,169.127243  C651.089478,192.235184 630.813599,210.528214 607.330383,213.051086  C603.261658,213.488220 601.372620,212.246750 601.638855,207.939026  C601.854248,204.455185 601.772217,200.939987 601.603210,197.449295  C601.459473,194.479340 602.764709,193.147858 605.629944,193.032455  C611.849365,192.781967 617.222900,190.277466 622.489136,186.527069 M636.679810,133.426239  C636.232849,126.011909 637.834961,118.463203 634.790283,111.220360  C630.528687,101.082863 619.118286,95.089157 608.174866,97.470024  C598.017944,99.679779 590.249573,109.480972 590.344666,119.966034  C590.443481,130.861771 598.684265,141.203506 609.404907,142.409698  C617.299927,143.298004 625.363770,142.678268 633.352234,142.747284  C635.640137,142.767059 636.708313,141.668823 636.662231,139.389526  C636.628601,137.725662 636.669189,136.060272 636.679810,133.426239 z"></path><path fill="#000000" opacity="1.000000" stroke="none" d="M517.076050,102.137192  C517.080505,93.771919 517.080505,93.771927 524.717712,93.785614  C537.221619,93.808037 537.217834,93.808029 537.206055,106.158195  C537.197266,115.319496 537.237000,124.481003 537.190674,133.642090  C537.053772,160.713943 515.803467,184.859924 490.053192,187.242401  C459.970673,190.025696 435.023315,171.860764 429.760834,143.225403  C427.697174,131.996109 429.215454,120.628761 428.801483,109.332504  C428.740509,107.669182 428.803467,106.001450 428.803558,104.335754  C428.804016,92.781998 427.632507,93.847855 439.155853,93.774361  C440.821381,93.763741 442.490906,93.863647 444.152008,93.780945  C447.611969,93.608704 448.774963,95.169373 448.705566,98.612061  C448.477631,109.919670 448.218506,121.240234 448.509827,132.541931  C449.134674,156.785263 469.860260,172.778183 492.312256,166.624832  C506.492828,162.738419 516.763977,149.780396 517.022583,135.070419  C517.212646,124.255768 517.074951,113.435356 517.076050,102.137192 z"></path><path fill="#000000" opacity="1.000000" stroke="none" d="M133.802002,104.720291  C132.423203,105.244781 131.380524,106.065788 130.086533,104.829727  C130.866547,100.914398 133.517014,97.801003 135.453400,94.407059  C144.118011,79.220314 153.056168,64.189659 161.726868,49.006310  C163.454712,45.980644 165.592636,44.303196 169.031693,43.756966  C189.803986,40.457703 210.170639,41.818195 230.190384,48.459190  C234.434906,49.867191 234.789139,51.686096 232.617889,55.347519  C224.974411,68.236931 217.405838,81.177399 210.165695,94.295456  C207.879822,98.437111 205.457443,99.178123 200.954254,98.206833  C178.062729,93.269386 155.633865,94.381844 133.802002,104.720291 z"></path><path fill="#000000" opacity="1.000000" stroke="none" d="M554.998169,317.196442  C539.505066,308.698792 532.585693,295.660217 533.875427,278.654755  C535.025146,263.496063 542.671082,252.189514 556.916687,246.332306  C570.130676,240.899246 582.852600,242.786942 594.035156,251.682617  C605.242493,260.597961 609.658264,272.893555 607.788269,286.745850  C604.947937,307.786682 589.108521,321.573059 569.726013,321.071442  C564.647705,320.940002 559.891479,319.538361 554.998169,317.196442 M582.802063,296.310211  C583.853455,294.816315 585.074341,293.413025 585.929138,291.813995  C592.135986,280.203400 585.747498,265.043671 573.936462,263.225006  C565.616760,261.943939 558.850098,265.555664 555.651367,272.984711  C551.920593,281.649506 554.127319,292.575562 560.648987,297.729126  C566.699341,302.510254 575.300293,302.145477 582.802063,296.310211 z"></path><path fill="#000000" opacity="1.000000" stroke="none" d="M696.725952,248.079590  C711.110901,257.014587 718.562378,272.485474 716.016174,287.641296  C713.147583,304.715302 702.640808,316.904572 686.270020,319.971344  C663.751892,324.189758 645.129639,309.476532 642.072327,287.174164  C639.285889,266.847656 651.888367,248.697754 671.257202,244.351669  C679.950317,242.401062 688.479797,243.457748 696.725952,248.079590 M682.811768,263.336243  C671.468384,262.154480 663.640930,267.722687 662.274597,277.945831  C660.614685,290.364655 665.971191,299.072876 676.533691,301.028412  C677.813538,301.265320 679.178162,301.337524 680.467285,301.183289  C689.547058,300.096863 695.528870,293.559235 696.566528,283.697540  C697.479553,275.020538 692.210815,266.793396 682.811768,263.336243 z"></path><path fill="#000000" opacity="1.000000" stroke="none" d="M428.796021,285.000000  C428.796356,273.180664 428.915771,261.859467 428.737671,250.542984  C428.672516,246.402054 430.325897,244.611908 434.326813,245.027893  C438.667480,245.479187 444.101257,242.753479 446.230804,249.666885  C452.748718,246.413620 458.800720,243.506760 465.920197,243.540924  C482.559784,243.620789 494.701294,253.285660 495.988007,269.892883  C497.166321,285.101715 496.529266,300.451904 496.663025,315.740082  C496.681793,317.883850 495.697662,319.222839 493.359100,319.186035  C493.193054,319.183411 493.026550,319.209961 492.860474,319.207855  C473.484253,318.963898 477.142273,321.900391 476.849030,304.799316  C476.694946,295.812988 476.891083,286.821045 476.779510,277.833466  C476.664459,268.562256 472.306641,263.311066 464.752106,263.040344  C456.118011,262.730896 449.844116,268.149872 448.980103,276.983704  C447.778381,289.269989 448.449310,301.601410 448.536407,313.910065  C448.563446,317.732727 447.551239,319.536407 443.529144,319.283600  C440.378387,319.085510 437.197784,319.079681 434.045654,319.257568  C430.154419,319.477142 428.700470,317.810516 428.759064,313.964355  C428.903564,304.478241 428.800690,294.988373 428.796021,285.000000 z"></path><path fill="#000000" opacity="1.000000" stroke="none" d="M773.107056,307.949188  C773.081909,320.326019 773.937622,319.106384 762.305115,319.199280  C761.805481,319.203278 761.305786,319.199799 760.806152,319.200195  C753.579041,319.206146 753.608826,319.206146 753.612000,312.203949  C753.621155,291.888306 753.738892,271.571075 753.499023,251.258194  C753.441956,246.425262 755.000000,244.525009 759.769592,244.976181  C763.897827,245.366684 768.744263,243.600250 770.830078,249.570694  C777.436951,246.100861 783.883118,243.417114 791.342041,243.549545  C806.706787,243.822357 818.024902,253.228363 820.352539,268.453796  C822.276367,281.037842 820.914917,293.722260 821.193298,306.357483  C821.477844,319.275391 821.266663,319.279999 808.274475,319.192200  C801.649841,319.147430 801.634949,319.147461 801.636658,312.509003  C801.639160,302.682434 801.694702,292.855804 801.661133,283.029388  C801.652649,280.539612 801.596252,278.018616 801.211304,275.567017  C799.764038,266.349396 795.628052,262.610565 787.569824,263.003906  C779.563110,263.394745 773.534790,269.180481 773.263123,277.482574  C772.936523,287.465546 773.135132,297.465729 773.107056,307.949188 z"></path><path fill="#000000" opacity="1.000000" stroke="none" d="M493.467163,61.784195  C493.965179,68.406334 491.654419,72.352242 486.398438,74.384262  C481.707397,76.197868 477.808380,74.625648 474.743530,71.118515  C471.446503,67.345665 471.039917,62.990700 473.663727,58.623226  C475.837952,55.004139 479.255035,53.554352 483.392395,53.699150  C488.553192,53.879772 491.617432,56.795639 493.467163,61.784195 z"></path><path fill="#000000" opacity="1.000000" stroke="none" d="M771.754395,72.335960  C764.520142,65.651176 768.477722,55.544563 776.497009,53.872486  C781.169189,52.898300 785.777771,54.881836 788.060791,58.828690  C790.304993,62.708385 789.899170,68.157387 786.804688,71.369919  C783.411560,74.892456 779.325195,76.224014 774.590637,74.133751  C773.690430,73.736366 772.890991,73.110672 771.754395,72.335960 z"></path></svg>