<svg xmlns="http://www.w3.org/2000/svg" xmlns:xlink="http://www.w3.org/1999/xlink" id="Layer_1" x="0px" y="0px" width="100%" viewBox="0 0 226 74" xml:space="preserve"><path fill="#161515" opacity="1.000000" stroke="none" d="M37.000000,75.000000  C25.014437,75.000000 13.028873,75.000000 1.021655,75.000000  C1.021655,50.377460 1.021655,25.754900 1.021655,1.066168  C76.333313,1.066168 151.666656,1.066168 227.000000,1.066168  C227.000000,10.084341 227.000000,19.073513 226.656128,28.575172  C225.256836,30.009045 224.201401,30.930426 222.304977,32.585991  C224.785660,32.804741 225.892822,32.902370 227.000000,33.000000  C227.000000,46.970638 227.000000,60.941273 227.000000,75.000000  C171.645798,75.000000 116.291557,75.000000 60.520985,74.617264  C60.069614,71.489693 60.034580,68.744858 60.339325,65.957954  C62.885178,64.648392 65.800026,63.536869 61.816498,60.602757  C62.101986,59.823582 62.354019,59.341454 62.983040,58.865246  C65.630562,57.645458 68.090416,56.667881 70.116638,55.121956  C72.018547,53.670887 73.505440,51.617596 69.956009,49.696358  C69.321030,48.928463 68.730042,48.464516 68.239120,47.581802  C70.601326,37.832134 68.775452,29.208078 64.224487,21.133083  C65.850197,21.352745 67.087967,21.561615 68.598671,21.816540  C68.759506,20.249220 69.324722,18.891441 68.891655,18.043516  C68.135773,16.563496 66.765503,15.397264 65.652725,14.099522  C65.056831,15.461853 64.320572,16.784027 63.915211,18.200872  C63.652298,19.119814 63.872387,20.176943 63.579376,21.002481  C62.345463,19.483616 61.604794,17.911734 60.408604,16.855925  C59.457241,16.016203 57.754230,15.144114 56.726032,15.446457  C53.992386,16.250292 52.273403,23.573092 53.640182,26.077110  C53.002655,26.798159 52.705097,27.448006 52.407536,28.097853  C53.632092,28.388546 54.856644,28.679239 56.334045,29.128586  C56.748909,29.848755 56.910931,30.410273 56.816265,31.214043  C57.059048,35.023899 57.558521,38.591503 58.114571,42.526360  C58.123043,43.594551 58.074936,44.295490 57.805935,45.132217  C57.406666,45.560066 57.228298,45.852127 57.031582,46.365208  C57.013237,46.586227 56.867695,47.005226 56.521809,47.092014  C55.821796,48.224060 55.467667,49.269318 55.151474,50.495872  C55.189407,50.677170 55.006351,50.999226 54.798405,51.167553  C54.508076,51.675461 54.425694,52.015041 54.209682,52.183846  C54.076054,52.013065 54.363853,52.337730 54.065353,52.281586  C53.487896,52.809410 53.208946,53.393375 52.800270,54.305531  C51.691551,55.162384 50.671719,55.627773 49.739773,56.229324  C38.259388,63.639729 28.250124,62.285358 20.628239,51.237801  C17.581535,46.821743 16.480265,41.063503 14.477582,35.875160  C14.330009,35.941059 13.162207,36.462528 11.730035,36.722115  C6.109756,35.874664 2.556833,39.586777 3.516944,44.941296  C3.912750,47.148697 5.812892,49.778702 5.109850,51.367180  C2.503080,57.257004 4.219601,59.237656 10.254917,58.640732  C10.881589,58.578751 11.543604,58.874115 12.398807,59.255905  C15.406175,61.755005 18.203959,64.001884 21.006714,66.636612  C22.286997,70.333717 30.770796,72.648148 35.374500,70.771332  C36.131367,70.768631 36.564850,70.849113 36.996502,71.336624  C36.996449,72.829109 36.998222,73.914558 37.000000,75.000000 M45.562122,15.538900  C45.996815,13.865428 46.431507,12.191955 46.967579,9.771399  C45.650932,8.894238 44.411892,7.452027 43.001381,7.258315  C40.123035,6.863019 37.152370,7.139917 34.358688,7.139917  C31.965832,11.167871 29.710587,14.964183 27.972483,17.889975  C32.243195,17.889975 37.100391,17.889975 42.360016,18.459879  C42.655491,19.875397 42.859772,21.318323 43.274448,22.698015  C43.624752,23.863537 44.064777,25.071177 44.778973,26.025208  C45.076488,26.422636 46.745975,26.447891 46.836006,26.236122  C47.308784,25.124046 47.934464,23.759680 47.654793,22.710011  C47.042309,20.411222 45.916836,18.249113 45.562122,15.538900 M134.799225,24.114571  C138.473389,24.876741 142.134796,25.714760 145.832642,26.336000  C146.557388,26.457764 147.790802,25.948257 148.125992,25.354967  C148.502106,24.689310 148.444260,23.396559 148.021225,22.726290  C146.006668,19.534298 136.011734,20.498934 133.282516,24.165377  C132.897354,25.226633 132.512207,26.287888 131.795456,27.941721  C130.658127,29.519690 129.410248,31.030582 128.404510,32.688377  C125.540436,37.409359 126.464676,45.448910 130.184769,48.983150  C134.352692,52.942848 140.463745,53.982132 144.537415,51.424049  C149.709824,48.176010 152.308334,40.572689 150.207321,34.833649  C147.867111,28.441206 143.888885,26.495110 134.000015,26.178976  C134.000214,25.452753 134.000412,24.726528 134.799225,24.114571 M98.998238,49.975670  C99.911369,49.054558 100.824509,48.133446 101.737640,47.212330  C100.583977,46.807655 99.430321,46.402981 98.106934,45.109474  C98.098038,42.954350 98.087929,40.799232 98.080528,38.644104  C98.068367,35.102798 99.725021,32.812927 103.340004,32.776821  C107.064064,32.739620 107.873199,35.461937 107.872154,38.587955  C107.870735,42.823597 107.871796,47.059235 107.871796,51.497066  C110.302589,51.381634 112.034576,51.299385 114.553116,51.179783  C113.910889,44.192440 113.310013,37.655071 113.329483,30.857304  C114.055641,30.094618 114.804520,29.350113 115.460228,28.531029  C115.507240,28.472315 114.872948,27.868183 114.555435,27.517649  C113.704796,28.341608 112.854164,29.165567 111.360123,29.641987  C109.156578,28.653284 106.996414,26.967875 104.740051,26.827349  C100.607452,26.569975 96.384270,29.424847 92.201187,25.288868  C92.201187,34.711727 92.201187,42.936989 92.201187,52.002628  C94.554588,51.228680 96.420197,50.615147 98.998238,49.975670 M211.084167,34.566475  C211.382568,34.883930 211.680984,35.201382 211.979385,35.518837  C212.319443,35.061893 212.659485,34.604954 213.750244,34.243973  C214.435455,35.983658 215.575760,37.688351 215.712753,39.470184  C216.013321,43.379673 215.805908,47.328220 215.805908,51.519054  C218.166275,51.379688 219.895676,51.277573 221.484375,51.183769  C221.670883,50.337353 221.799210,50.025562 221.799347,49.713715  C221.801422,45.223774 221.830124,40.733177 221.763855,36.244045  C221.684387,30.861282 217.863922,26.788654 212.562256,26.718058  C208.500046,26.663965 204.432358,27.020630 200.057587,27.207850  C200.057587,34.747772 200.057587,42.965652 200.057587,51.434647  C202.146317,51.315369 203.883270,51.216179 205.839218,51.104485  C205.839218,46.693821 205.831802,42.727139 205.841476,38.760494  C205.849838,35.329388 207.245590,33.382175 211.084167,34.566475 M168.996140,51.438622  C169.809662,55.485802 173.279984,53.844231 175.301559,53.757294  C177.190964,53.676041 178.996613,51.647316 181.250839,50.005016  C182.840073,48.338978 184.429306,46.672939 186.669083,45.297161  C188.025345,44.910229 189.381592,44.523293 190.737854,44.136360  C189.737030,43.392666 188.736206,42.648972 187.485428,41.195301  C186.323013,37.463577 185.160614,33.731853 184.729431,29.976538  C185.402115,29.313984 186.074799,28.651430 186.747467,27.988873  C186.081879,27.398106 185.416275,26.807339 184.750687,26.216576  C184.167068,27.148844 183.583435,28.081114 182.214752,29.049496  C172.697571,23.933228 163.576187,28.236303 162.747375,38.099857  C162.279388,43.669502 164.635880,47.631226 168.996140,51.438622 M88.000000,33.561012  C87.999321,32.067635 87.933922,30.570839 88.012543,29.081646  C88.142914,26.612144 87.688263,24.871710 84.581055,24.961782  C81.922592,25.038847 80.344704,25.607658 79.870102,28.728123  C79.545357,30.863321 77.849815,32.781086 76.815414,34.820568  C76.168083,36.096889 75.146690,37.400440 75.094574,38.723339  C74.892242,43.859222 74.680420,49.041080 75.193993,54.133015  C75.367432,55.852669 77.624008,58.662769 79.027687,58.724613  C84.133812,58.949577 89.701454,60.661232 93.903709,56.150841  C95.531685,57.161716 96.883705,58.001240 99.362900,59.540668  C99.362900,57.007275 99.782166,55.239361 99.196495,53.916306  C98.875084,53.190239 96.845978,52.901287 95.609695,52.953682  C89.955704,53.193321 88.030746,51.521000 88.003708,45.993641  C87.985039,42.177299 88.000046,38.360798 88.000000,33.561012 M38.633480,26.550730  C39.219971,25.344015 39.806461,24.137302 40.392952,22.930588  C38.515465,22.272415 36.674530,21.306274 34.746090,21.077404  C33.675655,20.950359 32.459122,22.054293 31.308439,22.603405  C32.037472,23.935286 32.462738,25.729637 33.583199,26.465586  C34.648170,27.165092 36.439983,26.758007 38.633480,26.550730 M156.374466,32.826782  C156.989380,31.898481 157.604309,30.970181 158.219238,30.041882  C156.364868,29.850651 154.462936,29.358955 152.683380,29.640541  C152.105408,29.731997 151.847504,31.846054 151.443192,33.034988  C152.883286,33.066761 154.323380,33.098534 156.374466,32.826782 M198.187531,54.746086  C198.536774,54.004234 198.886032,53.262383 199.235291,52.520531  C197.993851,52.451954 196.752426,52.383377 195.510986,52.314800  C195.437561,52.686024 195.364151,53.057247 195.290726,53.428474  C196.026810,53.902905 196.762894,54.377335 198.187531,54.746086 M124.941978,46.309620  C124.993179,46.781410 125.044388,47.253197 125.095589,47.724987  C125.512611,47.615776 125.929634,47.506569 126.346657,47.397362  C126.064987,46.993130 125.783310,46.588894 124.941978,46.309620 M29.058002,10.690331  C29.006792,10.218561 28.955584,9.746790 28.904373,9.275020  C28.487375,9.384225 28.070377,9.493429 27.653379,9.602634  C27.935041,10.006858 28.216703,10.411081 29.058002,10.690331 M104.491440,24.817823  C104.774010,24.412733 105.056572,24.007643 105.339134,23.602552  C104.920631,23.493801 104.502121,23.385050 104.083618,23.276299  C104.033310,23.749062 103.983002,24.221827 104.491440,24.817823 M57.553558,10.819602  C57.195568,10.814932 56.837578,10.810263 56.479588,10.805593  C56.477673,10.954088 56.465496,11.231647 56.475327,11.232430  C56.831512,11.260749 57.189743,11.263294 57.553558,10.819602 z"></path><path fill="#131112" opacity="1.000000" stroke="none" d="M59.999542,66.000015  C60.034580,68.744858 60.069614,71.489693 60.052326,74.617264  C54.977909,75.000000 49.955814,75.000000 44.458984,74.663940  C43.623070,73.744255 43.261898,73.160614 42.900723,72.576981  C42.600483,73.384651 42.300240,74.192329 42.000000,75.000000  C40.611111,75.000000 39.222221,75.000000 37.416664,75.000000  C36.998222,73.914558 36.996449,72.829109 37.389458,71.237549  C45.675510,70.930412 52.145382,66.898537 58.925896,63.981133  C59.316505,64.878059 59.658024,65.439041 59.999542,66.000015 z"></path><path fill="#161415" opacity="1.000000" stroke="none" d="M227.000000,32.600006  C225.892822,32.902370 224.785660,32.804741 222.304977,32.585991  C224.201401,30.930426 225.256836,30.009045 226.656128,29.043831  C227.000000,30.066669 227.000000,31.133339 227.000000,32.600006 z"></path><path fill="#161415" opacity="1.000000" stroke="none" d="M42.333332,75.000000  C42.300240,74.192329 42.600483,73.384651 42.900723,72.576981  C43.261898,73.160614 43.623070,73.744255 43.992123,74.663940  C43.555553,75.000000 43.111111,75.000000 42.333332,75.000000 z"></path><path fill="#F7F7F7" opacity="1.000000" stroke="none" d="M58.876801,63.645180  C52.145382,66.898537 45.675510,70.930412 37.391289,70.830505  C36.564850,70.849113 36.131367,70.768631 35.036201,70.600273  C29.916925,69.091179 25.459333,67.669968 21.001743,66.248756  C18.203959,64.001884 15.406175,61.755005 12.418530,58.886860  C11.812695,57.775864 11.194408,57.351330 11.012321,56.786236  C9.353668,51.638859 7.403860,46.531609 6.474026,41.248104  C6.286677,40.183548 10.051651,38.423428 11.994404,36.983997  C13.162207,36.462528 14.330009,35.941059 14.477582,35.875160  C16.480265,41.063503 17.581535,46.821743 20.628239,51.237801  C28.250124,62.285358 38.259388,63.639729 49.739773,56.229324  C50.671719,55.627773 51.691551,55.162384 53.055962,54.184704  C53.748871,53.269699 54.056362,52.803715 54.363853,52.337730  C54.363853,52.337730 54.076054,52.013065 54.456577,52.036839  C54.893517,51.706818 54.949932,51.353020 55.006351,50.999226  C55.006351,50.999226 55.189407,50.677170 55.448624,50.326370  C56.094460,48.985458 56.481079,47.995342 56.867699,47.005226  C56.867695,47.005226 57.013237,46.586227 57.300255,46.267250  C57.733791,45.630989 57.880310,45.313709 58.026833,44.996429  C58.074936,44.295490 58.123043,43.594551 58.489914,42.329224  C58.230099,38.167152 57.651524,34.569469 57.072952,30.971788  C56.910931,30.410273 56.748909,29.848755 56.286644,28.816273  C55.317646,27.565506 54.648899,26.785707 53.980148,26.005907  C52.273403,23.573092 53.992386,16.250292 56.726032,15.446457  C57.754230,15.144114 59.457241,16.016203 60.408604,16.855925  C61.604794,17.911734 62.345463,19.483616 63.620934,20.949226  C63.959175,21.065647 63.836536,21.122292 63.836536,21.122292  C68.775452,29.208078 70.601326,37.832134 68.105827,47.917366  C67.837288,48.828278 67.747032,48.997036 67.778389,49.138912  C67.843590,49.433861 67.973228,49.714558 68.025108,50.354252  C66.184570,53.424702 64.395309,56.142014 62.606049,58.859322  C62.354019,59.341454 62.101986,59.823582 61.487492,60.588799  C60.375618,61.796318 59.626209,62.720749 58.876801,63.645180 z"></path><path fill="#161415" opacity="1.000000" stroke="none" d="M88.000000,34.052689  C88.000046,38.360798 87.985039,42.177299 88.003708,45.993641  C88.030746,51.521000 89.955704,53.193321 95.609695,52.953682  C96.845978,52.901287 98.875084,53.190239 99.196495,53.916306  C99.782166,55.239361 99.362900,57.007275 99.362900,59.540668  C96.883705,58.001240 95.531685,57.161716 93.903709,56.150841  C89.701454,60.661232 84.133812,58.949577 79.027687,58.724613  C77.624008,58.662769 75.367432,55.852669 75.193993,54.133015  C74.680420,49.041080 74.892242,43.859222 75.094574,38.723339  C75.146690,37.400440 76.168083,36.096889 76.815414,34.820568  C77.849815,32.781086 79.545357,30.863321 79.870102,28.728123  C80.344704,25.607658 81.922592,25.038847 84.581055,24.961782  C87.688263,24.871710 88.142914,26.612144 88.012543,29.081646  C87.933922,30.570839 87.999321,32.067635 88.000000,34.052689 z"></path><path fill="#F3F3F3" opacity="1.000000" stroke="none" d="M183.998199,30.000128  C185.160614,33.731853 186.323013,37.463577 187.290817,41.639915  C186.736984,43.058651 186.377762,44.032776 186.018539,45.006901  C184.429306,46.672939 182.840073,48.338978 180.664307,50.389381  C176.381378,50.752068 172.684982,50.730381 168.988571,50.708698  C164.635880,47.631226 162.279388,43.669502 162.747375,38.099857  C163.576187,28.236303 172.697571,23.933228 182.810730,29.155239  C183.659409,29.462925 183.856567,29.709307 183.998199,30.000128 M169.240173,41.838669  C172.225647,46.225330 175.931244,47.504517 178.366653,44.311325  C179.877014,42.331009 180.496323,38.721977 179.789169,36.361141  C179.375473,34.980053 175.412094,33.668903 173.320236,34.010078  C169.946335,34.560345 168.301254,37.383827 169.240173,41.838669 z"></path><path fill="#F4F3F4" opacity="1.000000" stroke="none" d="M133.999924,26.905209  C143.888885,26.495110 147.867111,28.441206 150.207321,34.833649  C152.308334,40.572689 149.709824,48.176010 144.537415,51.424049  C140.463745,53.982132 134.352692,52.942848 130.184769,48.983150  C126.464676,45.448910 125.540436,37.409359 128.404510,32.688377  C129.410248,31.030582 130.658127,29.519690 132.271484,27.562452  C133.164978,27.090527 133.582443,26.997868 133.999924,26.905209 M132.938843,39.424393  C133.286301,43.473354 135.360153,46.613907 139.474854,45.602581  C141.634583,45.071762 144.079193,41.871834 144.610016,39.480888  C145.323181,36.268795 143.381775,33.213173 139.544785,32.807499  C135.470184,32.376705 133.466537,34.767605 132.938843,39.424393 z"></path><path fill="#F4F4F4" opacity="1.000000" stroke="none" d="M211.000000,34.002670  C207.245590,33.382175 205.849838,35.329388 205.841476,38.760494  C205.831802,42.727139 205.839218,46.693821 205.839218,51.104485  C203.883270,51.216179 202.146317,51.315369 200.057587,51.434647  C200.057587,42.965652 200.057587,34.747772 200.057587,27.207850  C204.432358,27.020630 208.500046,26.663965 212.562256,26.718058  C217.863922,26.788654 221.684387,30.861282 221.763855,36.244045  C221.830124,40.733177 221.801422,45.223774 221.799347,49.713715  C221.799210,50.025562 221.670883,50.337353 221.484375,51.183769  C219.895676,51.277573 218.166275,51.379688 215.805908,51.519054  C215.805908,47.328220 216.013321,43.379673 215.712753,39.470184  C215.575760,37.688351 214.435455,35.983658 213.050293,34.081299  C211.900223,33.946636 211.450104,33.974651 211.000000,34.002670 z"></path><path fill="#F9F8F9" opacity="1.000000" stroke="none" d="M112.709137,31.117701  C113.310013,37.655071 113.910889,44.192440 114.553116,51.179783  C112.034576,51.299385 110.302589,51.381634 107.871796,51.497066  C107.871796,47.059235 107.870735,42.823597 107.872154,38.587955  C107.873199,35.461937 107.064064,32.739620 103.340004,32.776821  C99.725021,32.812927 98.068367,35.102798 98.080528,38.644104  C98.087929,40.799232 98.098038,42.954350 98.107880,45.949127  C98.167824,47.859726 98.226814,48.930672 98.285812,50.001610  C96.420197,50.615147 94.554588,51.228680 92.201187,52.002628  C92.201187,42.936989 92.201187,34.711727 92.201187,25.288868  C96.384270,29.424847 100.607452,26.569975 104.740051,26.827349  C106.996414,26.967875 109.156578,28.653284 111.716568,30.052376  C112.148491,30.813725 112.360527,31.032036 112.709137,31.117701 z"></path><path fill="#F1F1F1" opacity="1.000000" stroke="none" d="M41.957596,17.889977  C37.100391,17.889975 32.243195,17.889975 27.972483,17.889975  C29.710587,14.964183 31.965832,11.167871 34.358688,7.139917  C37.152370,7.139917 40.123035,6.863019 43.001381,7.258315  C44.411892,7.452027 45.650932,8.894238 46.635811,10.359147  C45.419167,12.590433 44.534286,14.233971 43.411526,16.009394  C42.768295,16.724178 42.362946,17.307077 41.957596,17.889977 z"></path><path fill="#131112" opacity="1.000000" stroke="none" d="M11.730034,36.722115  C10.051651,38.423428 6.286677,40.183548 6.474026,41.248104  C7.403860,46.531609 9.353668,51.638859 11.012321,56.786236  C11.194408,57.351330 11.812695,57.775864 12.208944,58.634636  C11.543604,58.874115 10.881589,58.578751 10.254917,58.640732  C4.219601,59.237656 2.503080,57.257004 5.109850,51.367180  C5.812892,49.778702 3.912750,47.148697 3.516944,44.941296  C2.556833,39.586777 6.109756,35.874664 11.730034,36.722115 z"></path><path fill="#161415" opacity="1.000000" stroke="none" d="M133.999390,23.999706  C136.011734,20.498934 146.006668,19.534298 148.021225,22.726290  C148.444260,23.396559 148.502106,24.689310 148.125992,25.354967  C147.790802,25.948257 146.557388,26.457764 145.832642,26.336000  C142.134796,25.714760 138.473389,24.876741 134.399612,24.057285  C134.000000,24.000000 133.999390,23.999706 133.999390,23.999706 z"></path><path fill="#161415" opacity="1.000000" stroke="none" d="M38.272842,26.694109  C36.439983,26.758007 34.648170,27.165092 33.583199,26.465586  C32.462738,25.729637 32.037472,23.935286 31.308439,22.603405  C32.459122,22.054293 33.675655,20.950359 34.746090,21.077404  C36.674530,21.306274 38.515465,22.272415 40.392952,22.930588  C39.806461,24.137302 39.219971,25.344015 38.272842,26.694109 z"></path><path fill="#161415" opacity="1.000000" stroke="none" d="M42.158806,18.174927  C42.362946,17.307077 42.768295,16.724178 43.749672,16.045366  C44.550751,15.976697 44.775810,16.003941 45.000866,16.031185  C45.916836,18.249113 47.042309,20.411222 47.654793,22.710011  C47.934464,23.759680 47.308784,25.124046 46.836006,26.236122  C46.745975,26.447891 45.076488,26.422636 44.778973,26.025208  C44.064777,25.071177 43.624752,23.863537 43.274448,22.698015  C42.859772,21.318323 42.655491,19.875397 42.158806,18.174927 z"></path><path fill="#131112" opacity="1.000000" stroke="none" d="M62.983040,58.865250  C64.395309,56.142014 66.184570,53.424702 68.345711,50.354149  C69.145058,50.000702 69.572533,50.000504 70.000000,50.000305  C73.505440,51.617596 72.018547,53.670887 70.116638,55.121956  C68.090416,56.667881 65.630562,57.645458 62.983040,58.865250 z"></path><path fill="#161415" opacity="1.000000" stroke="none" d="M63.917618,21.118900  C63.872387,20.176943 63.652298,19.119814 63.915211,18.200872  C64.320572,16.784027 65.056831,15.461853 65.652725,14.099522  C66.765503,15.397264 68.135773,16.563496 68.891655,18.043516  C69.324722,18.891441 68.759506,20.249220 68.598671,21.816540  C67.087967,21.561615 65.850197,21.352745 64.224487,21.133083  C63.836536,21.122292 63.959175,21.065647 63.917618,21.118900 z"></path><path fill="#161415" opacity="1.000000" stroke="none" d="M156.068970,32.978546  C154.323380,33.098534 152.883286,33.066761 151.443192,33.034988  C151.847504,31.846054 152.105408,29.731997 152.683380,29.640541  C154.462936,29.358955 156.364868,29.850651 158.219238,30.041882  C157.604309,30.970181 156.989380,31.898481 156.068970,32.978546 z"></path><path fill="#131112" opacity="1.000000" stroke="none" d="M21.006716,66.636612  C25.459333,67.669968 29.916925,69.091179 34.712814,70.683449  C30.770796,72.648148 22.286997,70.333717 21.006716,66.636612 z"></path><path fill="#110F0F" opacity="1.000000" stroke="none" d="M168.992355,51.073662  C172.684982,50.730381 176.381378,50.752068 180.458466,50.624741  C178.996613,51.647316 177.190964,53.676041 175.301559,53.757294  C173.279984,53.844231 169.809662,55.485802 168.992355,51.073662 z"></path><path fill="#161415" opacity="1.000000" stroke="none" d="M58.925896,63.981133  C59.626209,62.720749 60.375618,61.796318 61.454033,60.885845  C65.800026,63.536869 62.885178,64.648392 60.339325,65.957954  C59.658024,65.439041 59.316505,64.878059 58.925896,63.981133 z"></path><path fill="#0F0D0E" opacity="1.000000" stroke="none" d="M56.816265,31.214043  C57.651524,34.569469 58.230099,38.167152 58.433334,41.961967  C57.558521,38.591503 57.059048,35.023899 56.816265,31.214043 z"></path><path fill="#161415" opacity="1.000000" stroke="none" d="M186.343811,45.152031  C186.377762,44.032776 186.736984,43.058651 187.415802,41.994904  C188.736206,42.648972 189.737030,43.392666 190.737854,44.136360  C189.381592,44.523293 188.025345,44.910229 186.343811,45.152031 z"></path><path fill="#161415" opacity="1.000000" stroke="none" d="M98.642021,49.988640  C98.226814,48.930672 98.167824,47.859726 98.192741,46.393547  C99.430321,46.402981 100.583977,46.807655 101.737640,47.212330  C100.824509,48.133446 99.911369,49.054558 98.642021,49.988640 z"></path><path fill="#161415" opacity="1.000000" stroke="none" d="M184.363815,29.988333  C183.856567,29.709307 183.659409,29.462925 183.203262,29.137180  C183.583435,28.081114 184.167068,27.148844 184.750687,26.216576  C185.416275,26.807339 186.081879,27.398106 186.747467,27.988873  C186.074799,28.651430 185.402115,29.313984 184.363815,29.988333 z"></path><path fill="#161415" opacity="1.000000" stroke="none" d="M197.843262,54.798927  C196.762894,54.377335 196.026810,53.902905 195.290726,53.428474  C195.364151,53.057247 195.437561,52.686024 195.510986,52.314800  C196.752426,52.383377 197.993851,52.451954 199.235291,52.520531  C198.886032,53.262383 198.536774,54.004234 197.843262,54.798927 z"></path><path fill="#161415" opacity="1.000000" stroke="none" d="M113.019310,30.987503  C112.360527,31.032036 112.148491,30.813725 112.038269,30.226147  C112.854164,29.165567 113.704796,28.341608 114.555435,27.517651  C114.872948,27.868183 115.507240,28.472315 115.460228,28.531029  C114.804520,29.350113 114.055641,30.094618 113.019310,30.987503 z"></path><path fill="#161415" opacity="1.000000" stroke="none" d="M53.640182,26.077110  C54.648899,26.785707 55.317646,27.565506 56.033798,28.657619  C54.856644,28.679239 53.632092,28.388546 52.407536,28.097853  C52.705097,27.448006 53.002655,26.798159 53.640182,26.077110 z"></path><path fill="#0C0B0B" opacity="1.000000" stroke="none" d="M45.281494,15.785043  C44.775810,16.003941 44.550751,15.976697 43.987549,15.913481  C44.534286,14.233971 45.419167,12.590433 46.585121,10.732689  C46.431507,12.191955 45.996815,13.865428 45.281494,15.785043 z"></path><path fill="#161415" opacity="1.000000" stroke="none" d="M125.221809,46.247139  C125.783310,46.588894 126.064987,46.993130 126.346657,47.397362  C125.929634,47.506569 125.512611,47.615776 125.095596,47.724987  C125.044388,47.253197 124.993179,46.781410 125.221809,46.247139 z"></path><path fill="#161415" opacity="1.000000" stroke="none" d="M28.778185,10.752818  C28.216703,10.411081 27.935041,10.006858 27.653379,9.602634  C28.070377,9.493429 28.487375,9.384225 28.904373,9.275020  C28.955584,9.746790 29.006792,10.218561 28.778185,10.752818 z"></path><path fill="#161415" opacity="1.000000" stroke="none" d="M133.999969,26.542091  C133.582443,26.997868 133.164978,27.090527 132.437271,27.266163  C132.512207,26.287888 132.897354,25.226633 133.640961,24.082542  C133.999390,23.999706 134.000000,24.000000 134.000305,24.000153  C134.000412,24.726528 134.000214,25.452753 133.999969,26.542091 z"></path><path fill="#161415" opacity="1.000000" stroke="none" d="M104.212067,24.756207  C103.983002,24.221827 104.033310,23.749062 104.083618,23.276299  C104.502121,23.385050 104.920631,23.493801 105.339134,23.602552  C105.056572,24.007643 104.774010,24.412733 104.212067,24.756207 z"></path><path fill="#0F0D0E" opacity="1.000000" stroke="none" d="M56.521812,47.092014  C56.481079,47.995342 56.094460,48.985458 55.410690,50.145073  C55.467667,49.269318 55.821796,48.224060 56.521812,47.092014 z"></path><path fill="#161415" opacity="1.000000" stroke="none" d="M211.042084,34.284573  C211.450104,33.974651 211.900223,33.946636 212.674927,34.033318  C212.659485,34.604954 212.319443,35.061893 211.979385,35.518837  C211.680984,35.201382 211.382568,34.883930 211.042084,34.284573 z"></path><path fill="#161415" opacity="1.000000" stroke="none" d="M57.550629,11.044501  C57.189743,11.263294 56.831512,11.260749 56.475327,11.232430  C56.465496,11.231647 56.477673,10.954088 56.479588,10.805593  C56.837578,10.810263 57.195568,10.814932 57.550629,11.044501 z"></path><path fill="#0F0D0E" opacity="1.000000" stroke="none" d="M54.065353,52.281586  C54.056362,52.803715 53.748871,53.269699 53.185692,53.856514  C53.208946,53.393375 53.487896,52.809410 54.065353,52.281586 z"></path><path fill="#161415" opacity="1.000000" stroke="none" d="M69.956009,49.696358  C69.572533,50.000504 69.145058,50.000702 68.396988,50.001007  C67.973228,49.714558 67.843590,49.433861 67.778389,49.138912  C67.747032,48.997036 67.837288,48.828278 68.005768,48.336128  C68.730042,48.464516 69.321030,48.928463 69.956009,49.696358 z"></path><path fill="#0F0D0E" opacity="1.000000" stroke="none" d="M54.798405,51.167553  C54.949932,51.353020 54.893517,51.706818 54.590206,52.207619  C54.425694,52.015041 54.508076,51.675461 54.798405,51.167553 z"></path><path fill="#0F0D0E" opacity="1.000000" stroke="none" d="M57.805935,45.132217  C57.880310,45.313709 57.733791,45.630989 57.318600,46.046230  C57.228298,45.852127 57.406666,45.560066 57.805935,45.132217 z"></path><path fill="#191718" opacity="1.000000" stroke="none" d="M169.126312,41.450195  C168.301254,37.383827 169.946335,34.560345 173.320236,34.010078  C175.412094,33.668903 179.375473,34.980053 179.789169,36.361141  C180.496323,38.721977 179.877014,42.331009 178.366653,44.311325  C175.931244,47.504517 172.225647,46.225330 169.126312,41.450195 z"></path><path fill="#171616" opacity="1.000000" stroke="none" d="M132.944153,39.020805  C133.466537,34.767605 135.470184,32.376705 139.544785,32.807499  C143.381775,33.213173 145.323181,36.268795 144.610016,39.480888  C144.079193,41.871834 141.634583,45.071762 139.474854,45.602581  C135.360153,46.613907 133.286301,43.473354 132.944153,39.020805 z"></path></svg>